ISO-10303-21;
HEADER;
/* Generated by software containing ST-Developer
 * from STEP Tools, Inc. (www.steptools.com) 
 */

FILE_DESCRIPTION(
/* description */ (''),
/* implementation_level */ '2;1');

FILE_NAME(
/* name */ 'Top.step',
/* time_stamp */ '2026-07-31T11:56:30-04:00',
/* author */ (''),
/* organization */ (''),
/* preprocessor_version */ 'ST-DEVELOPER v20.1',
/* originating_system */ 'Autodesk Translation Framework v15.8.0.0',
/* authorisation */ '');

FILE_SCHEMA (('AUTOMOTIVE_DESIGN { 1 0 10303 214 3 1 1 }'));
ENDSEC;

DATA;
#10=MECHANICAL_DESIGN_GEOMETRIC_PRESENTATION_REPRESENTATION('',(#13),#774);
#11=SHAPE_REPRESENTATION_RELATIONSHIP('SRR','None',#781,#12);
#12=ADVANCED_BREP_SHAPE_REPRESENTATION('',(#14),#773);
#13=STYLED_ITEM('',(#790),#14);
#14=MANIFOLD_SOLID_BREP('Top',#466);
#15=FACE_BOUND('',#66,.T.);
#16=FACE_BOUND('',#67,.T.);
#17=FACE_BOUND('',#68,.T.);
#18=FACE_BOUND('',#69,.T.);
#19=FACE_BOUND('',#89,.T.);
#20=FACE_BOUND('',#90,.T.);
#21=FACE_BOUND('',#91,.T.);
#22=FACE_BOUND('',#92,.T.);
#23=PLANE('',#486);
#24=PLANE('',#487);
#25=PLANE('',#493);
#26=PLANE('',#494);
#27=PLANE('',#497);
#28=PLANE('',#498);
#29=PLANE('',#499);
#30=PLANE('',#500);
#31=PLANE('',#501);
#32=PLANE('',#502);
#33=PLANE('',#503);
#34=PLANE('',#504);
#35=PLANE('',#505);
#36=PLANE('',#508);
#37=PLANE('',#511);
#38=PLANE('',#516);
#39=FACE_OUTER_BOUND('',#62,.T.);
#40=FACE_OUTER_BOUND('',#63,.T.);
#41=FACE_OUTER_BOUND('',#64,.T.);
#42=FACE_OUTER_BOUND('',#65,.T.);
#43=FACE_OUTER_BOUND('',#70,.T.);
#44=FACE_OUTER_BOUND('',#71,.T.);
#45=FACE_OUTER_BOUND('',#72,.T.);
#46=FACE_OUTER_BOUND('',#73,.T.);
#47=FACE_OUTER_BOUND('',#74,.T.);
#48=FACE_OUTER_BOUND('',#75,.T.);
#49=FACE_OUTER_BOUND('',#76,.T.);
#50=FACE_OUTER_BOUND('',#77,.T.);
#51=FACE_OUTER_BOUND('',#78,.T.);
#52=FACE_OUTER_BOUND('',#79,.T.);
#53=FACE_OUTER_BOUND('',#80,.T.);
#54=FACE_OUTER_BOUND('',#81,.T.);
#55=FACE_OUTER_BOUND('',#82,.T.);
#56=FACE_OUTER_BOUND('',#83,.T.);
#57=FACE_OUTER_BOUND('',#84,.T.);
#58=FACE_OUTER_BOUND('',#85,.T.);
#59=FACE_OUTER_BOUND('',#86,.T.);
#60=FACE_OUTER_BOUND('',#87,.T.);
#61=FACE_OUTER_BOUND('',#88,.T.);
#62=EDGE_LOOP('',(#310,#311,#312,#313));
#63=EDGE_LOOP('',(#314,#315,#316,#317));
#64=EDGE_LOOP('',(#318,#319,#320,#321));
#65=EDGE_LOOP('',(#322,#323,#324,#325,#326,#327,#328,#329,#330,#331,#332));
#66=EDGE_LOOP('',(#333));
#67=EDGE_LOOP('',(#334,#335,#336,#337));
#68=EDGE_LOOP('',(#338,#339,#340,#341));
#69=EDGE_LOOP('',(#342));
#70=EDGE_LOOP('',(#343,#344,#345,#346));
#71=EDGE_LOOP('',(#347,#348,#349,#350));
#72=EDGE_LOOP('',(#351,#352,#353,#354));
#73=EDGE_LOOP('',(#355,#356,#357,#358));
#74=EDGE_LOOP('',(#359,#360,#361,#362));
#75=EDGE_LOOP('',(#363,#364,#365,#366));
#76=EDGE_LOOP('',(#367,#368,#369,#370));
#77=EDGE_LOOP('',(#371,#372,#373,#374));
#78=EDGE_LOOP('',(#375,#376,#377,#378));
#79=EDGE_LOOP('',(#379,#380,#381,#382));
#80=EDGE_LOOP('',(#383,#384,#385,#386));
#81=EDGE_LOOP('',(#387,#388,#389,#390));
#82=EDGE_LOOP('',(#391,#392,#393,#394));
#83=EDGE_LOOP('',(#395,#396,#397,#398));
#84=EDGE_LOOP('',(#399,#400,#401,#402));
#85=EDGE_LOOP('',(#403,#404,#405,#406));
#86=EDGE_LOOP('',(#407,#408,#409,#410));
#87=EDGE_LOOP('',(#411,#412,#413,#414));
#88=EDGE_LOOP('',(#415,#416,#417,#418,#419,#420,#421,#422,#423,#424,#425));
#89=EDGE_LOOP('',(#426));
#90=EDGE_LOOP('',(#427,#428,#429,#430));
#91=EDGE_LOOP('',(#431,#432,#433,#434));
#92=EDGE_LOOP('',(#435));
#93=LINE('',#648,#142);
#94=LINE('',#651,#143);
#95=LINE('',#656,#144);
#96=LINE('',#660,#145);
#97=LINE('',#662,#146);
#98=LINE('',#663,#147);
#99=LINE('',#666,#148);
#100=LINE('',#670,#149);
#101=LINE('',#674,#150);
#102=LINE('',#678,#151);
#103=LINE('',#681,#152);
#104=LINE('',#686,#153);
#105=LINE('',#688,#154);
#106=LINE('',#690,#155);
#107=LINE('',#691,#156);
#108=LINE('',#694,#157);
#109=LINE('',#696,#158);
#110=LINE('',#698,#159);
#111=LINE('',#699,#160);
#112=LINE('',#702,#161);
#113=LINE('',#703,#162);
#114=LINE('',#706,#163);
#115=LINE('',#707,#164);
#116=LINE('',#710,#165);
#117=LINE('',#715,#166);
#118=LINE('',#716,#167);
#119=LINE('',#717,#168);
#120=LINE('',#720,#169);
#121=LINE('',#721,#170);
#122=LINE('',#724,#171);
#123=LINE('',#725,#172);
#124=LINE('',#727,#173);
#125=LINE('',#731,#174);
#126=LINE('',#732,#175);
#127=LINE('',#733,#176);
#128=LINE('',#736,#177);
#129=LINE('',#737,#178);
#130=LINE('',#740,#179);
#131=LINE('',#741,#180);
#132=LINE('',#743,#181);
#133=LINE('',#747,#182);
#134=LINE('',#748,#183);
#135=LINE('',#749,#184);
#136=LINE('',#753,#185);
#137=LINE('',#756,#186);
#138=LINE('',#757,#187);
#139=LINE('',#761,#188);
#140=LINE('',#764,#189);
#141=LINE('',#765,#190);
#142=VECTOR('',#523,10.);
#143=VECTOR('',#526,10.);
#144=VECTOR('',#531,1.49999999999999);
#145=VECTOR('',#536,10.);
#146=VECTOR('',#537,10.);
#147=VECTOR('',#538,10.);
#148=VECTOR('',#541,10.);
#149=VECTOR('',#544,10.);
#150=VECTOR('',#547,10.);
#151=VECTOR('',#550,10.);
#152=VECTOR('',#553,10.);
#153=VECTOR('',#556,10.);
#154=VECTOR('',#557,10.);
#155=VECTOR('',#558,10.);
#156=VECTOR('',#559,10.);
#157=VECTOR('',#560,10.);
#158=VECTOR('',#561,10.);
#159=VECTOR('',#562,10.);
#160=VECTOR('',#563,10.);
#161=VECTOR('',#566,10.);
#162=VECTOR('',#567,10.);
#163=VECTOR('',#570,10.);
#164=VECTOR('',#571,10.);
#165=VECTOR('',#574,6.75);
#166=VECTOR('',#579,10.);
#167=VECTOR('',#580,10.);
#168=VECTOR('',#581,10.);
#169=VECTOR('',#584,10.);
#170=VECTOR('',#585,10.);
#171=VECTOR('',#588,10.);
#172=VECTOR('',#589,10.);
#173=VECTOR('',#592,10.);
#174=VECTOR('',#595,10.);
#175=VECTOR('',#596,10.);
#176=VECTOR('',#597,10.);
#177=VECTOR('',#600,10.);
#178=VECTOR('',#601,10.);
#179=VECTOR('',#604,10.);
#180=VECTOR('',#605,10.);
#181=VECTOR('',#608,10.);
#182=VECTOR('',#611,10.);
#183=VECTOR('',#612,10.);
#184=VECTOR('',#613,10.);
#185=VECTOR('',#618,10.);
#186=VECTOR('',#621,10.);
#187=VECTOR('',#622,10.);
#188=VECTOR('',#627,10.);
#189=VECTOR('',#630,10.);
#190=VECTOR('',#631,10.);
#191=CIRCLE('',#481,2.5);
#192=CIRCLE('',#482,2.5);
#193=CIRCLE('',#484,1.49999999999999);
#194=CIRCLE('',#485,1.49999999999999);
#195=CIRCLE('',#488,7.);
#196=CIRCLE('',#489,7.00000000000001);
#197=CIRCLE('',#490,7.00000000000001);
#198=CIRCLE('',#491,6.99999999999998);
#199=CIRCLE('',#492,6.75);
#200=CIRCLE('',#496,6.75);
#201=CIRCLE('',#507,7.00000000000001);
#202=CIRCLE('',#510,7.00000000000001);
#203=CIRCLE('',#513,7.);
#204=CIRCLE('',#515,6.99999999999998);
#205=VERTEX_POINT('',#644);
#206=VERTEX_POINT('',#645);
#207=VERTEX_POINT('',#647);
#208=VERTEX_POINT('',#649);
#209=VERTEX_POINT('',#653);
#210=VERTEX_POINT('',#655);
#211=VERTEX_POINT('',#659);
#212=VERTEX_POINT('',#661);
#213=VERTEX_POINT('',#665);
#214=VERTEX_POINT('',#667);
#215=VERTEX_POINT('',#669);
#216=VERTEX_POINT('',#671);
#217=VERTEX_POINT('',#673);
#218=VERTEX_POINT('',#675);
#219=VERTEX_POINT('',#677);
#220=VERTEX_POINT('',#679);
#221=VERTEX_POINT('',#682);
#222=VERTEX_POINT('',#684);
#223=VERTEX_POINT('',#685);
#224=VERTEX_POINT('',#687);
#225=VERTEX_POINT('',#689);
#226=VERTEX_POINT('',#692);
#227=VERTEX_POINT('',#693);
#228=VERTEX_POINT('',#695);
#229=VERTEX_POINT('',#697);
#230=VERTEX_POINT('',#701);
#231=VERTEX_POINT('',#705);
#232=VERTEX_POINT('',#709);
#233=VERTEX_POINT('',#713);
#234=VERTEX_POINT('',#714);
#235=VERTEX_POINT('',#719);
#236=VERTEX_POINT('',#723);
#237=VERTEX_POINT('',#729);
#238=VERTEX_POINT('',#730);
#239=VERTEX_POINT('',#735);
#240=VERTEX_POINT('',#739);
#241=VERTEX_POINT('',#745);
#242=VERTEX_POINT('',#746);
#243=VERTEX_POINT('',#751);
#244=VERTEX_POINT('',#755);
#245=VERTEX_POINT('',#759);
#246=VERTEX_POINT('',#763);
#247=EDGE_CURVE('',#205,#206,#191,.T.);
#248=EDGE_CURVE('',#207,#205,#93,.T.);
#249=EDGE_CURVE('',#208,#207,#192,.T.);
#250=EDGE_CURVE('',#208,#206,#94,.T.);
#251=EDGE_CURVE('',#209,#209,#193,.T.);
#252=EDGE_CURVE('',#209,#210,#95,.T.);
#253=EDGE_CURVE('',#210,#210,#194,.T.);
#254=EDGE_CURVE('',#211,#208,#96,.T.);
#255=EDGE_CURVE('',#212,#211,#97,.T.);
#256=EDGE_CURVE('',#212,#206,#98,.T.);
#257=EDGE_CURVE('',#212,#213,#99,.T.);
#258=EDGE_CURVE('',#213,#214,#195,.T.);
#259=EDGE_CURVE('',#214,#215,#100,.T.);
#260=EDGE_CURVE('',#215,#216,#196,.T.);
#261=EDGE_CURVE('',#216,#217,#101,.T.);
#262=EDGE_CURVE('',#217,#218,#197,.T.);
#263=EDGE_CURVE('',#218,#219,#102,.T.);
#264=EDGE_CURVE('',#219,#220,#198,.T.);
#265=EDGE_CURVE('',#220,#205,#103,.T.);
#266=EDGE_CURVE('',#221,#221,#199,.T.);
#267=EDGE_CURVE('',#222,#223,#104,.T.);
#268=EDGE_CURVE('',#223,#224,#105,.T.);
#269=EDGE_CURVE('',#224,#225,#106,.T.);
#270=EDGE_CURVE('',#225,#222,#107,.T.);
#271=EDGE_CURVE('',#226,#227,#108,.T.);
#272=EDGE_CURVE('',#227,#228,#109,.T.);
#273=EDGE_CURVE('',#228,#229,#110,.T.);
#274=EDGE_CURVE('',#229,#226,#111,.T.);
#275=EDGE_CURVE('',#230,#220,#112,.T.);
#276=EDGE_CURVE('',#230,#207,#113,.T.);
#277=EDGE_CURVE('',#231,#211,#114,.T.);
#278=EDGE_CURVE('',#231,#213,#115,.T.);
#279=EDGE_CURVE('',#221,#232,#116,.T.);
#280=EDGE_CURVE('',#232,#232,#200,.T.);
#281=EDGE_CURVE('',#233,#234,#117,.T.);
#282=EDGE_CURVE('',#234,#222,#118,.T.);
#283=EDGE_CURVE('',#233,#225,#119,.T.);
#284=EDGE_CURVE('',#235,#233,#120,.T.);
#285=EDGE_CURVE('',#235,#224,#121,.T.);
#286=EDGE_CURVE('',#236,#235,#122,.T.);
#287=EDGE_CURVE('',#236,#223,#123,.T.);
#288=EDGE_CURVE('',#234,#236,#124,.T.);
#289=EDGE_CURVE('',#237,#238,#125,.T.);
#290=EDGE_CURVE('',#238,#226,#126,.T.);
#291=EDGE_CURVE('',#237,#229,#127,.T.);
#292=EDGE_CURVE('',#239,#237,#128,.T.);
#293=EDGE_CURVE('',#239,#228,#129,.T.);
#294=EDGE_CURVE('',#240,#239,#130,.T.);
#295=EDGE_CURVE('',#240,#227,#131,.T.);
#296=EDGE_CURVE('',#238,#240,#132,.T.);
#297=EDGE_CURVE('',#241,#242,#133,.T.);
#298=EDGE_CURVE('',#241,#219,#134,.T.);
#299=EDGE_CURVE('',#242,#218,#135,.T.);
#300=EDGE_CURVE('',#243,#242,#201,.T.);
#301=EDGE_CURVE('',#243,#217,#136,.T.);
#302=EDGE_CURVE('',#243,#244,#137,.T.);
#303=EDGE_CURVE('',#244,#216,#138,.T.);
#304=EDGE_CURVE('',#245,#244,#202,.T.);
#305=EDGE_CURVE('',#245,#215,#139,.T.);
#306=EDGE_CURVE('',#245,#246,#140,.T.);
#307=EDGE_CURVE('',#246,#214,#141,.T.);
#308=EDGE_CURVE('',#231,#246,#203,.T.);
#309=EDGE_CURVE('',#241,#230,#204,.T.);
#310=ORIENTED_EDGE('',*,*,#247,.F.);
#311=ORIENTED_EDGE('',*,*,#248,.F.);
#312=ORIENTED_EDGE('',*,*,#249,.F.);
#313=ORIENTED_EDGE('',*,*,#250,.T.);
#314=ORIENTED_EDGE('',*,*,#251,.F.);
#315=ORIENTED_EDGE('',*,*,#252,.T.);
#316=ORIENTED_EDGE('',*,*,#253,.F.);
#317=ORIENTED_EDGE('',*,*,#252,.F.);
#318=ORIENTED_EDGE('',*,*,#250,.F.);
#319=ORIENTED_EDGE('',*,*,#254,.F.);
#320=ORIENTED_EDGE('',*,*,#255,.F.);
#321=ORIENTED_EDGE('',*,*,#256,.T.);
#322=ORIENTED_EDGE('',*,*,#247,.T.);
#323=ORIENTED_EDGE('',*,*,#256,.F.);
#324=ORIENTED_EDGE('',*,*,#257,.T.);
#325=ORIENTED_EDGE('',*,*,#258,.T.);
#326=ORIENTED_EDGE('',*,*,#259,.T.);
#327=ORIENTED_EDGE('',*,*,#260,.T.);
#328=ORIENTED_EDGE('',*,*,#261,.T.);
#329=ORIENTED_EDGE('',*,*,#262,.T.);
#330=ORIENTED_EDGE('',*,*,#263,.T.);
#331=ORIENTED_EDGE('',*,*,#264,.T.);
#332=ORIENTED_EDGE('',*,*,#265,.T.);
#333=ORIENTED_EDGE('',*,*,#266,.T.);
#334=ORIENTED_EDGE('',*,*,#267,.T.);
#335=ORIENTED_EDGE('',*,*,#268,.T.);
#336=ORIENTED_EDGE('',*,*,#269,.T.);
#337=ORIENTED_EDGE('',*,*,#270,.T.);
#338=ORIENTED_EDGE('',*,*,#271,.T.);
#339=ORIENTED_EDGE('',*,*,#272,.T.);
#340=ORIENTED_EDGE('',*,*,#273,.T.);
#341=ORIENTED_EDGE('',*,*,#274,.T.);
#342=ORIENTED_EDGE('',*,*,#251,.T.);
#343=ORIENTED_EDGE('',*,*,#248,.T.);
#344=ORIENTED_EDGE('',*,*,#265,.F.);
#345=ORIENTED_EDGE('',*,*,#275,.F.);
#346=ORIENTED_EDGE('',*,*,#276,.T.);
#347=ORIENTED_EDGE('',*,*,#255,.T.);
#348=ORIENTED_EDGE('',*,*,#277,.F.);
#349=ORIENTED_EDGE('',*,*,#278,.T.);
#350=ORIENTED_EDGE('',*,*,#257,.F.);
#351=ORIENTED_EDGE('',*,*,#266,.F.);
#352=ORIENTED_EDGE('',*,*,#279,.T.);
#353=ORIENTED_EDGE('',*,*,#280,.T.);
#354=ORIENTED_EDGE('',*,*,#279,.F.);
#355=ORIENTED_EDGE('',*,*,#281,.T.);
#356=ORIENTED_EDGE('',*,*,#282,.T.);
#357=ORIENTED_EDGE('',*,*,#270,.F.);
#358=ORIENTED_EDGE('',*,*,#283,.F.);
#359=ORIENTED_EDGE('',*,*,#284,.T.);
#360=ORIENTED_EDGE('',*,*,#283,.T.);
#361=ORIENTED_EDGE('',*,*,#269,.F.);
#362=ORIENTED_EDGE('',*,*,#285,.F.);
#363=ORIENTED_EDGE('',*,*,#286,.T.);
#364=ORIENTED_EDGE('',*,*,#285,.T.);
#365=ORIENTED_EDGE('',*,*,#268,.F.);
#366=ORIENTED_EDGE('',*,*,#287,.F.);
#367=ORIENTED_EDGE('',*,*,#288,.T.);
#368=ORIENTED_EDGE('',*,*,#287,.T.);
#369=ORIENTED_EDGE('',*,*,#267,.F.);
#370=ORIENTED_EDGE('',*,*,#282,.F.);
#371=ORIENTED_EDGE('',*,*,#289,.T.);
#372=ORIENTED_EDGE('',*,*,#290,.T.);
#373=ORIENTED_EDGE('',*,*,#274,.F.);
#374=ORIENTED_EDGE('',*,*,#291,.F.);
#375=ORIENTED_EDGE('',*,*,#292,.T.);
#376=ORIENTED_EDGE('',*,*,#291,.T.);
#377=ORIENTED_EDGE('',*,*,#273,.F.);
#378=ORIENTED_EDGE('',*,*,#293,.F.);
#379=ORIENTED_EDGE('',*,*,#294,.T.);
#380=ORIENTED_EDGE('',*,*,#293,.T.);
#381=ORIENTED_EDGE('',*,*,#272,.F.);
#382=ORIENTED_EDGE('',*,*,#295,.F.);
#383=ORIENTED_EDGE('',*,*,#296,.T.);
#384=ORIENTED_EDGE('',*,*,#295,.T.);
#385=ORIENTED_EDGE('',*,*,#271,.F.);
#386=ORIENTED_EDGE('',*,*,#290,.F.);
#387=ORIENTED_EDGE('',*,*,#297,.F.);
#388=ORIENTED_EDGE('',*,*,#298,.T.);
#389=ORIENTED_EDGE('',*,*,#263,.F.);
#390=ORIENTED_EDGE('',*,*,#299,.F.);
#391=ORIENTED_EDGE('',*,*,#300,.T.);
#392=ORIENTED_EDGE('',*,*,#299,.T.);
#393=ORIENTED_EDGE('',*,*,#262,.F.);
#394=ORIENTED_EDGE('',*,*,#301,.F.);
#395=ORIENTED_EDGE('',*,*,#302,.F.);
#396=ORIENTED_EDGE('',*,*,#301,.T.);
#397=ORIENTED_EDGE('',*,*,#261,.F.);
#398=ORIENTED_EDGE('',*,*,#303,.F.);
#399=ORIENTED_EDGE('',*,*,#304,.T.);
#400=ORIENTED_EDGE('',*,*,#303,.T.);
#401=ORIENTED_EDGE('',*,*,#260,.F.);
#402=ORIENTED_EDGE('',*,*,#305,.F.);
#403=ORIENTED_EDGE('',*,*,#306,.F.);
#404=ORIENTED_EDGE('',*,*,#305,.T.);
#405=ORIENTED_EDGE('',*,*,#259,.F.);
#406=ORIENTED_EDGE('',*,*,#307,.F.);
#407=ORIENTED_EDGE('',*,*,#308,.T.);
#408=ORIENTED_EDGE('',*,*,#307,.T.);
#409=ORIENTED_EDGE('',*,*,#258,.F.);
#410=ORIENTED_EDGE('',*,*,#278,.F.);
#411=ORIENTED_EDGE('',*,*,#309,.T.);
#412=ORIENTED_EDGE('',*,*,#275,.T.);
#413=ORIENTED_EDGE('',*,*,#264,.F.);
#414=ORIENTED_EDGE('',*,*,#298,.F.);
#415=ORIENTED_EDGE('',*,*,#249,.T.);
#416=ORIENTED_EDGE('',*,*,#276,.F.);
#417=ORIENTED_EDGE('',*,*,#309,.F.);
#418=ORIENTED_EDGE('',*,*,#297,.T.);
#419=ORIENTED_EDGE('',*,*,#300,.F.);
#420=ORIENTED_EDGE('',*,*,#302,.T.);
#421=ORIENTED_EDGE('',*,*,#304,.F.);
#422=ORIENTED_EDGE('',*,*,#306,.T.);
#423=ORIENTED_EDGE('',*,*,#308,.F.);
#424=ORIENTED_EDGE('',*,*,#277,.T.);
#425=ORIENTED_EDGE('',*,*,#254,.T.);
#426=ORIENTED_EDGE('',*,*,#253,.T.);
#427=ORIENTED_EDGE('',*,*,#296,.F.);
#428=ORIENTED_EDGE('',*,*,#289,.F.);
#429=ORIENTED_EDGE('',*,*,#292,.F.);
#430=ORIENTED_EDGE('',*,*,#294,.F.);
#431=ORIENTED_EDGE('',*,*,#288,.F.);
#432=ORIENTED_EDGE('',*,*,#281,.F.);
#433=ORIENTED_EDGE('',*,*,#284,.F.);
#434=ORIENTED_EDGE('',*,*,#286,.F.);
#435=ORIENTED_EDGE('',*,*,#280,.F.);
#436=CYLINDRICAL_SURFACE('',#480,2.5);
#437=CYLINDRICAL_SURFACE('',#483,1.49999999999999);
#438=CYLINDRICAL_SURFACE('',#495,6.75);
#439=CYLINDRICAL_SURFACE('',#506,7.00000000000001);
#440=CYLINDRICAL_SURFACE('',#509,7.00000000000001);
#441=CYLINDRICAL_SURFACE('',#512,7.);
#442=CYLINDRICAL_SURFACE('',#514,6.99999999999998);
#443=ADVANCED_FACE('',(#39),#436,.T.);
#444=ADVANCED_FACE('',(#40),#437,.F.);
#445=ADVANCED_FACE('',(#41),#23,.T.);
#446=ADVANCED_FACE('',(#42,#15,#16,#17,#18),#24,.T.);
#447=ADVANCED_FACE('',(#43),#25,.T.);
#448=ADVANCED_FACE('',(#44),#26,.T.);
#449=ADVANCED_FACE('',(#45),#438,.F.);
#450=ADVANCED_FACE('',(#46),#27,.T.);
#451=ADVANCED_FACE('',(#47),#28,.T.);
#452=ADVANCED_FACE('',(#48),#29,.T.);
#453=ADVANCED_FACE('',(#49),#30,.T.);
#454=ADVANCED_FACE('',(#50),#31,.T.);
#455=ADVANCED_FACE('',(#51),#32,.T.);
#456=ADVANCED_FACE('',(#52),#33,.T.);
#457=ADVANCED_FACE('',(#53),#34,.T.);
#458=ADVANCED_FACE('',(#54),#35,.T.);
#459=ADVANCED_FACE('',(#55),#439,.T.);
#460=ADVANCED_FACE('',(#56),#36,.T.);
#461=ADVANCED_FACE('',(#57),#440,.T.);
#462=ADVANCED_FACE('',(#58),#37,.T.);
#463=ADVANCED_FACE('',(#59),#441,.T.);
#464=ADVANCED_FACE('',(#60),#442,.T.);
#465=ADVANCED_FACE('',(#61,#19,#20,#21,#22),#38,.F.);
#466=CLOSED_SHELL('',(#443,#444,#445,#446,#447,#448,#449,#450,#451,#452,
#453,#454,#455,#456,#457,#458,#459,#460,#461,#462,#463,#464,#465));
#467=DERIVED_UNIT_ELEMENT(#469,1.);
#468=DERIVED_UNIT_ELEMENT(#776,-3.);
#469=(
MASS_UNIT()
NAMED_UNIT(*)
SI_UNIT(.KILO.,.GRAM.)
);
#470=DERIVED_UNIT((#467,#468));
#471=MEASURE_REPRESENTATION_ITEM('density measure',
POSITIVE_RATIO_MEASURE(7850.),#470);
#472=PROPERTY_DEFINITION_REPRESENTATION(#477,#474);
#473=PROPERTY_DEFINITION_REPRESENTATION(#478,#475);
#474=REPRESENTATION('material name',(#476),#773);
#475=REPRESENTATION('density',(#471),#773);
#476=DESCRIPTIVE_REPRESENTATION_ITEM('Steel','Steel');
#477=PROPERTY_DEFINITION('material property','material name',#783);
#478=PROPERTY_DEFINITION('material property','density of part',#783);
#479=AXIS2_PLACEMENT_3D('',#642,#517,#518);
#480=AXIS2_PLACEMENT_3D('',#643,#519,#520);
#481=AXIS2_PLACEMENT_3D('',#646,#521,#522);
#482=AXIS2_PLACEMENT_3D('',#650,#524,#525);
#483=AXIS2_PLACEMENT_3D('',#652,#527,#528);
#484=AXIS2_PLACEMENT_3D('',#654,#529,#530);
#485=AXIS2_PLACEMENT_3D('',#657,#532,#533);
#486=AXIS2_PLACEMENT_3D('',#658,#534,#535);
#487=AXIS2_PLACEMENT_3D('',#664,#539,#540);
#488=AXIS2_PLACEMENT_3D('',#668,#542,#543);
#489=AXIS2_PLACEMENT_3D('',#672,#545,#546);
#490=AXIS2_PLACEMENT_3D('',#676,#548,#549);
#491=AXIS2_PLACEMENT_3D('',#680,#551,#552);
#492=AXIS2_PLACEMENT_3D('',#683,#554,#555);
#493=AXIS2_PLACEMENT_3D('',#700,#564,#565);
#494=AXIS2_PLACEMENT_3D('',#704,#568,#569);
#495=AXIS2_PLACEMENT_3D('',#708,#572,#573);
#496=AXIS2_PLACEMENT_3D('',#711,#575,#576);
#497=AXIS2_PLACEMENT_3D('',#712,#577,#578);
#498=AXIS2_PLACEMENT_3D('',#718,#582,#583);
#499=AXIS2_PLACEMENT_3D('',#722,#586,#587);
#500=AXIS2_PLACEMENT_3D('',#726,#590,#591);
#501=AXIS2_PLACEMENT_3D('',#728,#593,#594);
#502=AXIS2_PLACEMENT_3D('',#734,#598,#599);
#503=AXIS2_PLACEMENT_3D('',#738,#602,#603);
#504=AXIS2_PLACEMENT_3D('',#742,#606,#607);
#505=AXIS2_PLACEMENT_3D('',#744,#609,#610);
#506=AXIS2_PLACEMENT_3D('',#750,#614,#615);
#507=AXIS2_PLACEMENT_3D('',#752,#616,#617);
#508=AXIS2_PLACEMENT_3D('',#754,#619,#620);
#509=AXIS2_PLACEMENT_3D('',#758,#623,#624);
#510=AXIS2_PLACEMENT_3D('',#760,#625,#626);
#511=AXIS2_PLACEMENT_3D('',#762,#628,#629);
#512=AXIS2_PLACEMENT_3D('',#766,#632,#633);
#513=AXIS2_PLACEMENT_3D('',#767,#634,#635);
#514=AXIS2_PLACEMENT_3D('',#768,#636,#637);
#515=AXIS2_PLACEMENT_3D('',#769,#638,#639);
#516=AXIS2_PLACEMENT_3D('',#770,#640,#641);
#517=DIRECTION('axis',(0.,0.,1.));
#518=DIRECTION('refdir',(1.,0.,0.));
#519=DIRECTION('center_axis',(0.,-1.,0.));
#520=DIRECTION('ref_axis',(-1.77635683940025E-15,0.,-1.));
#521=DIRECTION('center_axis',(0.,1.,0.));
#522=DIRECTION('ref_axis',(-1.77635683940025E-15,0.,-1.));
#523=DIRECTION('',(0.,1.,0.));
#524=DIRECTION('center_axis',(0.,-1.,0.));
#525=DIRECTION('ref_axis',(-1.,0.,1.77635683940025E-15));
#526=DIRECTION('',(0.,1.,0.));
#527=DIRECTION('center_axis',(0.,-1.,0.));
#528=DIRECTION('ref_axis',(-1.,0.,0.));
#529=DIRECTION('center_axis',(0.,-1.,0.));
#530=DIRECTION('ref_axis',(-1.,0.,0.));
#531=DIRECTION('',(0.,-1.,0.));
#532=DIRECTION('center_axis',(0.,1.,0.));
#533=DIRECTION('ref_axis',(-1.,0.,0.));
#534=DIRECTION('center_axis',(0.,0.,1.));
#535=DIRECTION('ref_axis',(0.,1.,0.));
#536=DIRECTION('',(-1.,0.,0.));
#537=DIRECTION('',(0.,-1.,0.));
#538=DIRECTION('',(-1.,0.,0.));
#539=DIRECTION('center_axis',(0.,1.,0.));
#540=DIRECTION('ref_axis',(-1.,0.,0.));
#541=DIRECTION('',(0.,0.,1.));
#542=DIRECTION('center_axis',(0.,1.,0.));
#543=DIRECTION('ref_axis',(-1.,0.,6.34413156928661E-16));
#544=DIRECTION('',(1.,0.,0.));
#545=DIRECTION('center_axis',(0.,1.,0.));
#546=DIRECTION('ref_axis',(2.06184276001814E-15,0.,1.));
#547=DIRECTION('',(0.,0.,-1.));
#548=DIRECTION('center_axis',(0.,1.,0.));
#549=DIRECTION('ref_axis',(1.,0.,-6.3441315692866E-16));
#550=DIRECTION('',(-1.,0.,0.));
#551=DIRECTION('center_axis',(0.,1.,0.));
#552=DIRECTION('ref_axis',(2.53765262771465E-15,0.,-1.));
#553=DIRECTION('',(-1.,0.,0.));
#554=DIRECTION('center_axis',(0.,-1.,0.));
#555=DIRECTION('ref_axis',(-1.,0.,0.));
#556=DIRECTION('',(-1.,0.,0.));
#557=DIRECTION('',(0.,0.,-1.));
#558=DIRECTION('',(1.,0.,0.));
#559=DIRECTION('',(0.,0.,1.));
#560=DIRECTION('',(-1.,0.,0.));
#561=DIRECTION('',(0.,0.,-1.));
#562=DIRECTION('',(1.,0.,0.));
#563=DIRECTION('',(0.,0.,1.));
#564=DIRECTION('center_axis',(0.,2.66453525910038E-15,-1.));
#565=DIRECTION('ref_axis',(0.,-1.,-2.66453525910038E-15));
#566=DIRECTION('',(0.,1.,0.));
#567=DIRECTION('',(-1.,0.,0.));
#568=DIRECTION('center_axis',(-1.,0.,0.));
#569=DIRECTION('ref_axis',(0.,0.,1.));
#570=DIRECTION('',(0.,0.,-1.));
#571=DIRECTION('',(0.,1.,0.));
#572=DIRECTION('center_axis',(0.,1.,0.));
#573=DIRECTION('ref_axis',(-1.,0.,0.));
#574=DIRECTION('',(0.,-1.,0.));
#575=DIRECTION('center_axis',(0.,-1.,0.));
#576=DIRECTION('ref_axis',(-1.,0.,0.));
#577=DIRECTION('center_axis',(-1.,0.,0.));
#578=DIRECTION('ref_axis',(0.,0.,1.));
#579=DIRECTION('',(0.,0.,1.));
#580=DIRECTION('',(0.,1.,0.));
#581=DIRECTION('',(0.,1.,0.));
#582=DIRECTION('center_axis',(0.,0.,1.));
#583=DIRECTION('ref_axis',(1.,0.,0.));
#584=DIRECTION('',(1.,0.,0.));
#585=DIRECTION('',(0.,1.,0.));
#586=DIRECTION('center_axis',(1.,0.,0.));
#587=DIRECTION('ref_axis',(0.,0.,-1.));
#588=DIRECTION('',(0.,0.,-1.));
#589=DIRECTION('',(0.,1.,0.));
#590=DIRECTION('center_axis',(0.,0.,-1.));
#591=DIRECTION('ref_axis',(-1.,0.,0.));
#592=DIRECTION('',(-1.,0.,0.));
#593=DIRECTION('center_axis',(-1.,0.,0.));
#594=DIRECTION('ref_axis',(0.,0.,1.));
#595=DIRECTION('',(0.,0.,1.));
#596=DIRECTION('',(0.,1.,0.));
#597=DIRECTION('',(0.,1.,0.));
#598=DIRECTION('center_axis',(0.,0.,1.));
#599=DIRECTION('ref_axis',(1.,0.,0.));
#600=DIRECTION('',(1.,0.,0.));
#601=DIRECTION('',(0.,1.,0.));
#602=DIRECTION('center_axis',(1.,0.,0.));
#603=DIRECTION('ref_axis',(0.,0.,-1.));
#604=DIRECTION('',(0.,0.,-1.));
#605=DIRECTION('',(0.,1.,0.));
#606=DIRECTION('center_axis',(0.,0.,-1.));
#607=DIRECTION('ref_axis',(-1.,0.,0.));
#608=DIRECTION('',(-1.,0.,0.));
#609=DIRECTION('center_axis',(0.,0.,-1.));
#610=DIRECTION('ref_axis',(-1.,0.,0.));
#611=DIRECTION('',(1.,0.,0.));
#612=DIRECTION('',(0.,1.,0.));
#613=DIRECTION('',(0.,1.,0.));
#614=DIRECTION('center_axis',(0.,1.,0.));
#615=DIRECTION('ref_axis',(1.,0.,-6.3441315692866E-16));
#616=DIRECTION('center_axis',(0.,1.,0.));
#617=DIRECTION('ref_axis',(1.,0.,-6.3441315692866E-16));
#618=DIRECTION('',(0.,1.,0.));
#619=DIRECTION('center_axis',(1.,0.,0.));
#620=DIRECTION('ref_axis',(0.,0.,-1.));
#621=DIRECTION('',(0.,0.,1.));
#622=DIRECTION('',(0.,1.,0.));
#623=DIRECTION('center_axis',(0.,1.,0.));
#624=DIRECTION('ref_axis',(2.06184276001814E-15,0.,1.));
#625=DIRECTION('center_axis',(0.,1.,0.));
#626=DIRECTION('ref_axis',(2.06184276001814E-15,0.,1.));
#627=DIRECTION('',(0.,1.,0.));
#628=DIRECTION('center_axis',(0.,0.,1.));
#629=DIRECTION('ref_axis',(1.,0.,0.));
#630=DIRECTION('',(-1.,0.,0.));
#631=DIRECTION('',(0.,1.,0.));
#632=DIRECTION('center_axis',(0.,1.,0.));
#633=DIRECTION('ref_axis',(-1.,0.,6.34413156928661E-16));
#634=DIRECTION('center_axis',(0.,1.,0.));
#635=DIRECTION('ref_axis',(-1.,0.,6.34413156928661E-16));
#636=DIRECTION('center_axis',(0.,1.,0.));
#637=DIRECTION('ref_axis',(2.53765262771465E-15,0.,-1.));
#638=DIRECTION('center_axis',(0.,1.,0.));
#639=DIRECTION('ref_axis',(2.53765262771465E-15,0.,-1.));
#640=DIRECTION('center_axis',(0.,1.,0.));
#641=DIRECTION('ref_axis',(-1.,0.,0.));
#642=CARTESIAN_POINT('',(0.,0.,0.));
#643=CARTESIAN_POINT('Origin',(-39.5,9.,-32.5));
#644=CARTESIAN_POINT('',(-39.5,9.,-35.));
#645=CARTESIAN_POINT('',(-39.5,9.,-30.));
#646=CARTESIAN_POINT('Origin',(-39.5,9.,-32.5));
#647=CARTESIAN_POINT('',(-39.5,4.,-35.));
#648=CARTESIAN_POINT('',(-39.5,9.,-35.));
#649=CARTESIAN_POINT('',(-39.5,4.,-30.));
#650=CARTESIAN_POINT('Origin',(-39.5,4.,-32.5));
#651=CARTESIAN_POINT('',(-39.5,9.,-30.));
#652=CARTESIAN_POINT('Origin',(-39.5000005885959,9.,-32.5000004842877));
#653=CARTESIAN_POINT('',(-38.0000005885959,9.,-32.5000004842877));
#654=CARTESIAN_POINT('Origin',(-39.5000005885959,9.,-32.5000004842877));
#655=CARTESIAN_POINT('',(-38.0000005885959,4.,-32.5000004842877));
#656=CARTESIAN_POINT('',(-38.0000005885959,9.,-32.5000004842877));
#657=CARTESIAN_POINT('Origin',(-39.5000005885959,4.,-32.5000004842877));
#658=CARTESIAN_POINT('Origin',(-37.,4.,-30.));
#659=CARTESIAN_POINT('',(-37.,4.,-30.));
#660=CARTESIAN_POINT('',(-37.,4.,-30.));
#661=CARTESIAN_POINT('',(-37.,9.,-30.));
#662=CARTESIAN_POINT('',(-37.,4.,-30.));
#663=CARTESIAN_POINT('',(-37.,9.,-30.));
#664=CARTESIAN_POINT('Origin',(-10.3,9.,-10.05));
#665=CARTESIAN_POINT('',(-37.,9.,14.9));
#666=CARTESIAN_POINT('',(-37.,9.,14.9));
#667=CARTESIAN_POINT('',(-30.,9.,21.9));
#668=CARTESIAN_POINT('Origin',(-30.,9.,14.9));
#669=CARTESIAN_POINT('',(9.40000000000001,9.,21.9));
#670=CARTESIAN_POINT('',(9.40000000000001,9.,21.9));
#671=CARTESIAN_POINT('',(16.4,9.,14.9));
#672=CARTESIAN_POINT('Origin',(9.4,9.,14.9));
#673=CARTESIAN_POINT('',(16.4,9.,-35.));
#674=CARTESIAN_POINT('',(16.4,9.,-35.));
#675=CARTESIAN_POINT('',(9.40000000000001,9.,-42.));
#676=CARTESIAN_POINT('Origin',(9.40000000000001,9.,-35.));
#677=CARTESIAN_POINT('',(-30.,9.,-42.));
#678=CARTESIAN_POINT('',(-30.,9.,-42.));
#679=CARTESIAN_POINT('',(-37.,9.,-35.));
#680=CARTESIAN_POINT('Origin',(-30.,9.,-35.));
#681=CARTESIAN_POINT('',(-37.,9.,-35.));
#682=CARTESIAN_POINT('',(5.15000000000001,9.,-3.));
#683=CARTESIAN_POINT('Origin',(-1.59999999999999,9.,-3.));
#684=CARTESIAN_POINT('',(1.25000000000001,9.,-15.5));
#685=CARTESIAN_POINT('',(-23.75,9.,-15.5));
#686=CARTESIAN_POINT('',(1.25000000000001,9.,-15.5));
#687=CARTESIAN_POINT('',(-23.75,9.,-33.));
#688=CARTESIAN_POINT('',(-23.75,9.,-15.5));
#689=CARTESIAN_POINT('',(1.25000000000001,9.,-33.));
#690=CARTESIAN_POINT('',(-23.75,9.,-33.));
#691=CARTESIAN_POINT('',(1.25000000000001,9.,-33.));
#692=CARTESIAN_POINT('',(-9.59999999999999,9.,-7.75));
#693=CARTESIAN_POINT('',(-14.6,9.,-7.75));
#694=CARTESIAN_POINT('',(-9.59999999999999,9.,-7.75));
#695=CARTESIAN_POINT('',(-14.6,9.,-12.75));
#696=CARTESIAN_POINT('',(-14.6,9.,-7.75));
#697=CARTESIAN_POINT('',(-9.59999999999999,9.,-12.75));
#698=CARTESIAN_POINT('',(-14.6,9.,-12.75));
#699=CARTESIAN_POINT('',(-9.59999999999999,9.,-12.75));
#700=CARTESIAN_POINT('Origin',(-37.,9.,-35.));
#701=CARTESIAN_POINT('',(-37.,4.,-35.));
#702=CARTESIAN_POINT('',(-37.,4.,-35.));
#703=CARTESIAN_POINT('',(-37.,4.,-35.));
#704=CARTESIAN_POINT('Origin',(-37.,4.,-35.));
#705=CARTESIAN_POINT('',(-37.,4.,14.9));
#706=CARTESIAN_POINT('',(-37.,4.,14.9));
#707=CARTESIAN_POINT('',(-37.,4.,14.9));
#708=CARTESIAN_POINT('Origin',(-1.59999999999999,4.,-3.));
#709=CARTESIAN_POINT('',(5.15000000000001,4.,-3.));
#710=CARTESIAN_POINT('',(5.15000000000001,4.,-3.));
#711=CARTESIAN_POINT('Origin',(-1.59999999999999,4.,-3.));
#712=CARTESIAN_POINT('Origin',(1.25000000000001,4.,-33.));
#713=CARTESIAN_POINT('',(1.25000000000001,4.,-33.));
#714=CARTESIAN_POINT('',(1.25000000000001,4.,-15.5));
#715=CARTESIAN_POINT('',(1.25000000000001,4.,-33.));
#716=CARTESIAN_POINT('',(1.25000000000001,4.,-15.5));
#717=CARTESIAN_POINT('',(1.25000000000001,4.,-33.));
#718=CARTESIAN_POINT('Origin',(-23.75,4.,-33.));
#719=CARTESIAN_POINT('',(-23.75,4.,-33.));
#720=CARTESIAN_POINT('',(-23.75,4.,-33.));
#721=CARTESIAN_POINT('',(-23.75,4.,-33.));
#722=CARTESIAN_POINT('Origin',(-23.75,4.,-15.5));
#723=CARTESIAN_POINT('',(-23.75,4.,-15.5));
#724=CARTESIAN_POINT('',(-23.75,4.,-15.5));
#725=CARTESIAN_POINT('',(-23.75,4.,-15.5));
#726=CARTESIAN_POINT('Origin',(1.25000000000001,4.,-15.5));
#727=CARTESIAN_POINT('',(1.25000000000001,4.,-15.5));
#728=CARTESIAN_POINT('Origin',(-9.59999999999999,4.,-12.75));
#729=CARTESIAN_POINT('',(-9.59999999999999,4.,-12.75));
#730=CARTESIAN_POINT('',(-9.59999999999999,4.,-7.75));
#731=CARTESIAN_POINT('',(-9.59999999999999,4.,-12.75));
#732=CARTESIAN_POINT('',(-9.59999999999999,4.,-7.75));
#733=CARTESIAN_POINT('',(-9.59999999999999,4.,-12.75));
#734=CARTESIAN_POINT('Origin',(-14.6,4.,-12.75));
#735=CARTESIAN_POINT('',(-14.6,4.,-12.75));
#736=CARTESIAN_POINT('',(-14.6,4.,-12.75));
#737=CARTESIAN_POINT('',(-14.6,4.,-12.75));
#738=CARTESIAN_POINT('Origin',(-14.6,4.,-7.75));
#739=CARTESIAN_POINT('',(-14.6,4.,-7.75));
#740=CARTESIAN_POINT('',(-14.6,4.,-7.75));
#741=CARTESIAN_POINT('',(-14.6,4.,-7.75));
#742=CARTESIAN_POINT('Origin',(-9.59999999999999,4.,-7.75));
#743=CARTESIAN_POINT('',(-9.59999999999999,4.,-7.75));
#744=CARTESIAN_POINT('Origin',(9.40000000000001,4.,-42.));
#745=CARTESIAN_POINT('',(-30.,4.,-42.));
#746=CARTESIAN_POINT('',(9.40000000000001,4.,-42.));
#747=CARTESIAN_POINT('',(-30.,4.,-42.));
#748=CARTESIAN_POINT('',(-30.,4.,-42.));
#749=CARTESIAN_POINT('',(9.40000000000001,4.,-42.));
#750=CARTESIAN_POINT('Origin',(9.40000000000001,4.,-35.));
#751=CARTESIAN_POINT('',(16.4,4.,-35.));
#752=CARTESIAN_POINT('Origin',(9.40000000000001,4.,-35.));
#753=CARTESIAN_POINT('',(16.4,4.,-35.));
#754=CARTESIAN_POINT('Origin',(16.4,4.,14.9));
#755=CARTESIAN_POINT('',(16.4,4.,14.9));
#756=CARTESIAN_POINT('',(16.4,4.,-35.));
#757=CARTESIAN_POINT('',(16.4,4.,14.9));
#758=CARTESIAN_POINT('Origin',(9.4,4.,14.9));
#759=CARTESIAN_POINT('',(9.40000000000001,4.,21.9));
#760=CARTESIAN_POINT('Origin',(9.4,4.,14.9));
#761=CARTESIAN_POINT('',(9.40000000000001,4.,21.9));
#762=CARTESIAN_POINT('Origin',(-30.,4.,21.9));
#763=CARTESIAN_POINT('',(-30.,4.,21.9));
#764=CARTESIAN_POINT('',(9.40000000000001,4.,21.9));
#765=CARTESIAN_POINT('',(-30.,4.,21.9));
#766=CARTESIAN_POINT('Origin',(-30.,4.,14.9));
#767=CARTESIAN_POINT('Origin',(-30.,4.,14.9));
#768=CARTESIAN_POINT('Origin',(-30.,4.,-35.));
#769=CARTESIAN_POINT('Origin',(-30.,4.,-35.));
#770=CARTESIAN_POINT('Origin',(-10.3,4.,-10.05));
#771=UNCERTAINTY_MEASURE_WITH_UNIT(LENGTH_MEASURE(0.01),#775,
'DISTANCE_ACCURACY_VALUE',
'Maximum model space distance between geometric entities at asserted c
onnectivities');
#772=UNCERTAINTY_MEASURE_WITH_UNIT(LENGTH_MEASURE(0.01),#775,
'DISTANCE_ACCURACY_VALUE',
'Maximum model space distance between geometric entities at asserted c
onnectivities');
#773=(
GEOMETRIC_REPRESENTATION_CONTEXT(3)
GLOBAL_UNCERTAINTY_ASSIGNED_CONTEXT((#771))
GLOBAL_UNIT_ASSIGNED_CONTEXT((#775,#777,#778))
REPRESENTATION_CONTEXT('','3D')
);
#774=(
GEOMETRIC_REPRESENTATION_CONTEXT(3)
GLOBAL_UNCERTAINTY_ASSIGNED_CONTEXT((#772))
GLOBAL_UNIT_ASSIGNED_CONTEXT((#775,#777,#778))
REPRESENTATION_CONTEXT('','3D')
);
#775=(
LENGTH_UNIT()
NAMED_UNIT(*)
SI_UNIT(.MILLI.,.METRE.)
);
#776=(
LENGTH_UNIT()
NAMED_UNIT(*)
SI_UNIT($,.METRE.)
);
#777=(
NAMED_UNIT(*)
PLANE_ANGLE_UNIT()
SI_UNIT($,.RADIAN.)
);
#778=(
NAMED_UNIT(*)
SI_UNIT($,.STERADIAN.)
SOLID_ANGLE_UNIT()
);
#779=SHAPE_DEFINITION_REPRESENTATION(#780,#781);
#780=PRODUCT_DEFINITION_SHAPE('',$,#783);
#781=SHAPE_REPRESENTATION('',(#479),#773);
#782=PRODUCT_DEFINITION_CONTEXT('part definition',#787,'design');
#783=PRODUCT_DEFINITION('PCB','PCB v2',#784,#782);
#784=PRODUCT_DEFINITION_FORMATION('',$,#789);
#785=PRODUCT_RELATED_PRODUCT_CATEGORY('PCB v2','PCB v2',(#789));
#786=APPLICATION_PROTOCOL_DEFINITION('international standard',
'automotive_design',2009,#787);
#787=APPLICATION_CONTEXT(
'Core Data for Automotive Mechanical Design Process');
#788=PRODUCT_CONTEXT('part definition',#787,'mechanical');
#789=PRODUCT('PCB','PCB v2',$,(#788));
#790=PRESENTATION_STYLE_ASSIGNMENT((#791));
#791=SURFACE_STYLE_USAGE(.BOTH.,#792);
#792=SURFACE_SIDE_STYLE('',(#793));
#793=SURFACE_STYLE_FILL_AREA(#794);
#794=FILL_AREA_STYLE('Steel - Satin',(#795));
#795=FILL_AREA_STYLE_COLOUR('Steel - Satin',#796);
#796=COLOUR_RGB('Steel - Satin',0.627450980392157,0.627450980392157,0.627450980392157);
ENDSEC;
END-ISO-10303-21;
