ISO-10303-21;
HEADER;
/* Generated by software containing ST-Developer
 * from STEP Tools, Inc. (www.steptools.com) 
 */

FILE_DESCRIPTION(
/* description */ (''),
/* implementation_level */ '2;1');

FILE_NAME(
/* name */ 'TiltCase.step',
/* time_stamp */ '2026-07-27T22:51:07-04:00',
/* author */ (''),
/* organization */ (''),
/* preprocessor_version */ 'ST-DEVELOPER v20.1',
/* originating_system */ 'Autodesk Translation Framework v15.8.0.0',
/* authorisation */ '');

FILE_SCHEMA (('AUTOMOTIVE_DESIGN { 1 0 10303 214 3 1 1 }'));
ENDSEC;

DATA;
#10=MECHANICAL_DESIGN_GEOMETRIC_PRESENTATION_REPRESENTATION('',(#13,#14),
#1347);
#11=SHAPE_REPRESENTATION_RELATIONSHIP('SRR','None',#1354,#12);
#12=ADVANCED_BREP_SHAPE_REPRESENTATION('',(#15,#16),#1346);
#13=STYLED_ITEM('',(#1363),#15);
#14=STYLED_ITEM('',(#1363),#16);
#15=MANIFOLD_SOLID_BREP('Bottom',#802);
#16=MANIFOLD_SOLID_BREP('Top',#803);
#17=FACE_BOUND('',#130,.T.);
#18=FACE_BOUND('',#137,.T.);
#19=FACE_BOUND('',#138,.T.);
#20=FACE_BOUND('',#139,.T.);
#21=FACE_BOUND('',#140,.T.);
#22=FACE_BOUND('',#160,.T.);
#23=FACE_BOUND('',#161,.T.);
#24=FACE_BOUND('',#162,.T.);
#25=FACE_BOUND('',#163,.T.);
#26=CIRCLE('',#819,7.);
#27=CIRCLE('',#820,7.);
#28=CIRCLE('',#823,7.00000000000001);
#29=CIRCLE('',#824,7.00000000000001);
#30=CIRCLE('',#826,7.);
#31=CIRCLE('',#827,7.);
#32=CIRCLE('',#830,7.00000000000001);
#33=CIRCLE('',#831,7.00000000000001);
#34=CIRCLE('',#835,7.00000000000001);
#35=CIRCLE('',#836,7.00000000000001);
#36=CIRCLE('',#839,6.99999999999999);
#37=CIRCLE('',#840,6.99999999999999);
#38=CIRCLE('',#843,7.);
#39=CIRCLE('',#844,7.);
#40=CIRCLE('',#847,7.00000000000001);
#41=CIRCLE('',#848,7.00000000000001);
#42=CIRCLE('',#853,2.5);
#43=CIRCLE('',#854,2.5);
#44=CIRCLE('',#856,1.49999999999999);
#45=CIRCLE('',#857,1.49999999999999);
#46=CIRCLE('',#860,7.);
#47=CIRCLE('',#861,7.00000000000001);
#48=CIRCLE('',#862,7.00000000000001);
#49=CIRCLE('',#863,6.99999999999998);
#50=CIRCLE('',#864,6.75);
#51=CIRCLE('',#868,6.75);
#52=CIRCLE('',#879,7.00000000000001);
#53=CIRCLE('',#882,7.00000000000001);
#54=CIRCLE('',#885,7.);
#55=CIRCLE('',#887,6.99999999999998);
#56=CYLINDRICAL_SURFACE('',#818,7.);
#57=CYLINDRICAL_SURFACE('',#822,7.00000000000001);
#58=CYLINDRICAL_SURFACE('',#825,7.);
#59=CYLINDRICAL_SURFACE('',#829,7.00000000000001);
#60=CYLINDRICAL_SURFACE('',#834,7.00000000000001);
#61=CYLINDRICAL_SURFACE('',#838,6.99999999999999);
#62=CYLINDRICAL_SURFACE('',#842,7.);
#63=CYLINDRICAL_SURFACE('',#846,7.00000000000001);
#64=CYLINDRICAL_SURFACE('',#852,2.5);
#65=CYLINDRICAL_SURFACE('',#855,1.49999999999999);
#66=CYLINDRICAL_SURFACE('',#867,6.75);
#67=CYLINDRICAL_SURFACE('',#878,7.00000000000001);
#68=CYLINDRICAL_SURFACE('',#881,7.00000000000001);
#69=CYLINDRICAL_SURFACE('',#884,7.);
#70=CYLINDRICAL_SURFACE('',#886,6.99999999999998);
#71=FACE_OUTER_BOUND('',#113,.T.);
#72=FACE_OUTER_BOUND('',#114,.T.);
#73=FACE_OUTER_BOUND('',#115,.T.);
#74=FACE_OUTER_BOUND('',#116,.T.);
#75=FACE_OUTER_BOUND('',#117,.T.);
#76=FACE_OUTER_BOUND('',#118,.T.);
#77=FACE_OUTER_BOUND('',#119,.T.);
#78=FACE_OUTER_BOUND('',#120,.T.);
#79=FACE_OUTER_BOUND('',#121,.T.);
#80=FACE_OUTER_BOUND('',#122,.T.);
#81=FACE_OUTER_BOUND('',#123,.T.);
#82=FACE_OUTER_BOUND('',#124,.T.);
#83=FACE_OUTER_BOUND('',#125,.T.);
#84=FACE_OUTER_BOUND('',#126,.T.);
#85=FACE_OUTER_BOUND('',#127,.T.);
#86=FACE_OUTER_BOUND('',#128,.T.);
#87=FACE_OUTER_BOUND('',#129,.T.);
#88=FACE_OUTER_BOUND('',#131,.T.);
#89=FACE_OUTER_BOUND('',#132,.T.);
#90=FACE_OUTER_BOUND('',#133,.T.);
#91=FACE_OUTER_BOUND('',#134,.T.);
#92=FACE_OUTER_BOUND('',#135,.T.);
#93=FACE_OUTER_BOUND('',#136,.T.);
#94=FACE_OUTER_BOUND('',#141,.T.);
#95=FACE_OUTER_BOUND('',#142,.T.);
#96=FACE_OUTER_BOUND('',#143,.T.);
#97=FACE_OUTER_BOUND('',#144,.T.);
#98=FACE_OUTER_BOUND('',#145,.T.);
#99=FACE_OUTER_BOUND('',#146,.T.);
#100=FACE_OUTER_BOUND('',#147,.T.);
#101=FACE_OUTER_BOUND('',#148,.T.);
#102=FACE_OUTER_BOUND('',#149,.T.);
#103=FACE_OUTER_BOUND('',#150,.T.);
#104=FACE_OUTER_BOUND('',#151,.T.);
#105=FACE_OUTER_BOUND('',#152,.T.);
#106=FACE_OUTER_BOUND('',#153,.T.);
#107=FACE_OUTER_BOUND('',#154,.T.);
#108=FACE_OUTER_BOUND('',#155,.T.);
#109=FACE_OUTER_BOUND('',#156,.T.);
#110=FACE_OUTER_BOUND('',#157,.T.);
#111=FACE_OUTER_BOUND('',#158,.T.);
#112=FACE_OUTER_BOUND('',#159,.T.);
#113=EDGE_LOOP('',(#511,#512,#513,#514));
#114=EDGE_LOOP('',(#515,#516,#517,#518));
#115=EDGE_LOOP('',(#519,#520,#521,#522));
#116=EDGE_LOOP('',(#523,#524,#525,#526));
#117=EDGE_LOOP('',(#527,#528,#529,#530));
#118=EDGE_LOOP('',(#531,#532,#533,#534));
#119=EDGE_LOOP('',(#535,#536,#537,#538));
#120=EDGE_LOOP('',(#539,#540,#541,#542));
#121=EDGE_LOOP('',(#543,#544,#545,#546));
#122=EDGE_LOOP('',(#547,#548,#549,#550));
#123=EDGE_LOOP('',(#551,#552,#553,#554));
#124=EDGE_LOOP('',(#555,#556,#557,#558));
#125=EDGE_LOOP('',(#559,#560,#561,#562));
#126=EDGE_LOOP('',(#563,#564,#565,#566));
#127=EDGE_LOOP('',(#567,#568,#569,#570));
#128=EDGE_LOOP('',(#571,#572,#573,#574));
#129=EDGE_LOOP('',(#575,#576,#577,#578,#579,#580,#581,#582));
#130=EDGE_LOOP('',(#583,#584,#585,#586,#587,#588,#589,#590));
#131=EDGE_LOOP('',(#591,#592,#593,#594,#595,#596,#597,#598));
#132=EDGE_LOOP('',(#599,#600,#601,#602,#603,#604,#605,#606));
#133=EDGE_LOOP('',(#607,#608,#609,#610));
#134=EDGE_LOOP('',(#611,#612,#613,#614));
#135=EDGE_LOOP('',(#615,#616,#617,#618));
#136=EDGE_LOOP('',(#619,#620,#621,#622,#623,#624,#625,#626,#627,#628,#629));
#137=EDGE_LOOP('',(#630));
#138=EDGE_LOOP('',(#631,#632,#633,#634));
#139=EDGE_LOOP('',(#635,#636,#637,#638));
#140=EDGE_LOOP('',(#639));
#141=EDGE_LOOP('',(#640,#641,#642,#643));
#142=EDGE_LOOP('',(#644,#645,#646,#647));
#143=EDGE_LOOP('',(#648,#649,#650,#651));
#144=EDGE_LOOP('',(#652,#653,#654,#655));
#145=EDGE_LOOP('',(#656,#657,#658,#659));
#146=EDGE_LOOP('',(#660,#661,#662,#663));
#147=EDGE_LOOP('',(#664,#665,#666,#667));
#148=EDGE_LOOP('',(#668,#669,#670,#671));
#149=EDGE_LOOP('',(#672,#673,#674,#675));
#150=EDGE_LOOP('',(#676,#677,#678,#679));
#151=EDGE_LOOP('',(#680,#681,#682,#683));
#152=EDGE_LOOP('',(#684,#685,#686,#687));
#153=EDGE_LOOP('',(#688,#689,#690,#691));
#154=EDGE_LOOP('',(#692,#693,#694,#695));
#155=EDGE_LOOP('',(#696,#697,#698,#699));
#156=EDGE_LOOP('',(#700,#701,#702,#703));
#157=EDGE_LOOP('',(#704,#705,#706,#707));
#158=EDGE_LOOP('',(#708,#709,#710,#711));
#159=EDGE_LOOP('',(#712,#713,#714,#715,#716,#717,#718,#719,#720,#721,#722));
#160=EDGE_LOOP('',(#723));
#161=EDGE_LOOP('',(#724,#725,#726,#727));
#162=EDGE_LOOP('',(#728,#729,#730,#731));
#163=EDGE_LOOP('',(#732));
#164=LINE('',#1120,#245);
#165=LINE('',#1122,#246);
#166=LINE('',#1124,#247);
#167=LINE('',#1125,#248);
#168=LINE('',#1130,#249);
#169=LINE('',#1134,#250);
#170=LINE('',#1136,#251);
#171=LINE('',#1137,#252);
#172=LINE('',#1142,#253);
#173=LINE('',#1149,#254);
#174=LINE('',#1152,#255);
#175=LINE('',#1154,#256);
#176=LINE('',#1155,#257);
#177=LINE('',#1161,#258);
#178=LINE('',#1163,#259);
#179=LINE('',#1164,#260);
#180=LINE('',#1168,#261);
#181=LINE('',#1170,#262);
#182=LINE('',#1172,#263);
#183=LINE('',#1173,#264);
#184=LINE('',#1179,#265);
#185=LINE('',#1182,#266);
#186=LINE('',#1184,#267);
#187=LINE('',#1185,#268);
#188=LINE('',#1191,#269);
#189=LINE('',#1194,#270);
#190=LINE('',#1196,#271);
#191=LINE('',#1197,#272);
#192=LINE('',#1203,#273);
#193=LINE('',#1206,#274);
#194=LINE('',#1208,#275);
#195=LINE('',#1209,#276);
#196=LINE('',#1221,#277);
#197=LINE('',#1224,#278);
#198=LINE('',#1229,#279);
#199=LINE('',#1233,#280);
#200=LINE('',#1235,#281);
#201=LINE('',#1236,#282);
#202=LINE('',#1239,#283);
#203=LINE('',#1243,#284);
#204=LINE('',#1247,#285);
#205=LINE('',#1251,#286);
#206=LINE('',#1254,#287);
#207=LINE('',#1259,#288);
#208=LINE('',#1261,#289);
#209=LINE('',#1263,#290);
#210=LINE('',#1264,#291);
#211=LINE('',#1267,#292);
#212=LINE('',#1269,#293);
#213=LINE('',#1271,#294);
#214=LINE('',#1272,#295);
#215=LINE('',#1275,#296);
#216=LINE('',#1276,#297);
#217=LINE('',#1279,#298);
#218=LINE('',#1280,#299);
#219=LINE('',#1283,#300);
#220=LINE('',#1288,#301);
#221=LINE('',#1289,#302);
#222=LINE('',#1290,#303);
#223=LINE('',#1293,#304);
#224=LINE('',#1294,#305);
#225=LINE('',#1297,#306);
#226=LINE('',#1298,#307);
#227=LINE('',#1300,#308);
#228=LINE('',#1304,#309);
#229=LINE('',#1305,#310);
#230=LINE('',#1306,#311);
#231=LINE('',#1309,#312);
#232=LINE('',#1310,#313);
#233=LINE('',#1313,#314);
#234=LINE('',#1314,#315);
#235=LINE('',#1316,#316);
#236=LINE('',#1320,#317);
#237=LINE('',#1321,#318);
#238=LINE('',#1322,#319);
#239=LINE('',#1326,#320);
#240=LINE('',#1329,#321);
#241=LINE('',#1330,#322);
#242=LINE('',#1334,#323);
#243=LINE('',#1337,#324);
#244=LINE('',#1338,#325);
#245=VECTOR('',#893,10.);
#246=VECTOR('',#894,10.);
#247=VECTOR('',#895,10.);
#248=VECTOR('',#896,10.);
#249=VECTOR('',#901,10.);
#250=VECTOR('',#906,10.);
#251=VECTOR('',#907,10.);
#252=VECTOR('',#908,10.);
#253=VECTOR('',#913,10.);
#254=VECTOR('',#922,10.);
#255=VECTOR('',#925,10.);
#256=VECTOR('',#926,10.);
#257=VECTOR('',#927,10.);
#258=VECTOR('',#934,10.);
#259=VECTOR('',#937,10.);
#260=VECTOR('',#938,10.);
#261=VECTOR('',#941,10.);
#262=VECTOR('',#942,10.);
#263=VECTOR('',#943,10.);
#264=VECTOR('',#944,10.);
#265=VECTOR('',#951,10.);
#266=VECTOR('',#954,10.);
#267=VECTOR('',#955,10.);
#268=VECTOR('',#956,10.);
#269=VECTOR('',#963,10.);
#270=VECTOR('',#966,10.);
#271=VECTOR('',#967,10.);
#272=VECTOR('',#968,10.);
#273=VECTOR('',#975,10.);
#274=VECTOR('',#978,10.);
#275=VECTOR('',#979,10.);
#276=VECTOR('',#980,10.);
#277=VECTOR('',#997,10.);
#278=VECTOR('',#1000,10.);
#279=VECTOR('',#1005,1.49999999999999);
#280=VECTOR('',#1010,10.);
#281=VECTOR('',#1011,10.);
#282=VECTOR('',#1012,10.);
#283=VECTOR('',#1015,10.);
#284=VECTOR('',#1018,10.);
#285=VECTOR('',#1021,10.);
#286=VECTOR('',#1024,10.);
#287=VECTOR('',#1027,10.);
#288=VECTOR('',#1030,10.);
#289=VECTOR('',#1031,10.);
#290=VECTOR('',#1032,10.);
#291=VECTOR('',#1033,10.);
#292=VECTOR('',#1034,10.);
#293=VECTOR('',#1035,10.);
#294=VECTOR('',#1036,10.);
#295=VECTOR('',#1037,10.);
#296=VECTOR('',#1040,10.);
#297=VECTOR('',#1041,10.);
#298=VECTOR('',#1044,10.);
#299=VECTOR('',#1045,10.);
#300=VECTOR('',#1048,6.75);
#301=VECTOR('',#1053,10.);
#302=VECTOR('',#1054,10.);
#303=VECTOR('',#1055,10.);
#304=VECTOR('',#1058,10.);
#305=VECTOR('',#1059,10.);
#306=VECTOR('',#1062,10.);
#307=VECTOR('',#1063,10.);
#308=VECTOR('',#1066,10.);
#309=VECTOR('',#1069,10.);
#310=VECTOR('',#1070,10.);
#311=VECTOR('',#1071,10.);
#312=VECTOR('',#1074,10.);
#313=VECTOR('',#1075,10.);
#314=VECTOR('',#1078,10.);
#315=VECTOR('',#1079,10.);
#316=VECTOR('',#1082,10.);
#317=VECTOR('',#1085,10.);
#318=VECTOR('',#1086,10.);
#319=VECTOR('',#1087,10.);
#320=VECTOR('',#1092,10.);
#321=VECTOR('',#1095,10.);
#322=VECTOR('',#1096,10.);
#323=VECTOR('',#1101,10.);
#324=VECTOR('',#1104,10.);
#325=VECTOR('',#1105,10.);
#326=VERTEX_POINT('',#1118);
#327=VERTEX_POINT('',#1119);
#328=VERTEX_POINT('',#1121);
#329=VERTEX_POINT('',#1123);
#330=VERTEX_POINT('',#1127);
#331=VERTEX_POINT('',#1129);
#332=VERTEX_POINT('',#1133);
#333=VERTEX_POINT('',#1135);
#334=VERTEX_POINT('',#1139);
#335=VERTEX_POINT('',#1141);
#336=VERTEX_POINT('',#1145);
#337=VERTEX_POINT('',#1147);
#338=VERTEX_POINT('',#1151);
#339=VERTEX_POINT('',#1153);
#340=VERTEX_POINT('',#1157);
#341=VERTEX_POINT('',#1159);
#342=VERTEX_POINT('',#1166);
#343=VERTEX_POINT('',#1167);
#344=VERTEX_POINT('',#1169);
#345=VERTEX_POINT('',#1171);
#346=VERTEX_POINT('',#1175);
#347=VERTEX_POINT('',#1177);
#348=VERTEX_POINT('',#1181);
#349=VERTEX_POINT('',#1183);
#350=VERTEX_POINT('',#1187);
#351=VERTEX_POINT('',#1189);
#352=VERTEX_POINT('',#1193);
#353=VERTEX_POINT('',#1195);
#354=VERTEX_POINT('',#1199);
#355=VERTEX_POINT('',#1201);
#356=VERTEX_POINT('',#1205);
#357=VERTEX_POINT('',#1207);
#358=VERTEX_POINT('',#1217);
#359=VERTEX_POINT('',#1218);
#360=VERTEX_POINT('',#1220);
#361=VERTEX_POINT('',#1222);
#362=VERTEX_POINT('',#1226);
#363=VERTEX_POINT('',#1228);
#364=VERTEX_POINT('',#1232);
#365=VERTEX_POINT('',#1234);
#366=VERTEX_POINT('',#1238);
#367=VERTEX_POINT('',#1240);
#368=VERTEX_POINT('',#1242);
#369=VERTEX_POINT('',#1244);
#370=VERTEX_POINT('',#1246);
#371=VERTEX_POINT('',#1248);
#372=VERTEX_POINT('',#1250);
#373=VERTEX_POINT('',#1252);
#374=VERTEX_POINT('',#1255);
#375=VERTEX_POINT('',#1257);
#376=VERTEX_POINT('',#1258);
#377=VERTEX_POINT('',#1260);
#378=VERTEX_POINT('',#1262);
#379=VERTEX_POINT('',#1265);
#380=VERTEX_POINT('',#1266);
#381=VERTEX_POINT('',#1268);
#382=VERTEX_POINT('',#1270);
#383=VERTEX_POINT('',#1274);
#384=VERTEX_POINT('',#1278);
#385=VERTEX_POINT('',#1282);
#386=VERTEX_POINT('',#1286);
#387=VERTEX_POINT('',#1287);
#388=VERTEX_POINT('',#1292);
#389=VERTEX_POINT('',#1296);
#390=VERTEX_POINT('',#1302);
#391=VERTEX_POINT('',#1303);
#392=VERTEX_POINT('',#1308);
#393=VERTEX_POINT('',#1312);
#394=VERTEX_POINT('',#1318);
#395=VERTEX_POINT('',#1319);
#396=VERTEX_POINT('',#1324);
#397=VERTEX_POINT('',#1328);
#398=VERTEX_POINT('',#1332);
#399=VERTEX_POINT('',#1336);
#400=EDGE_CURVE('',#326,#327,#164,.T.);
#401=EDGE_CURVE('',#326,#328,#165,.T.);
#402=EDGE_CURVE('',#329,#328,#166,.T.);
#403=EDGE_CURVE('',#327,#329,#167,.T.);
#404=EDGE_CURVE('',#330,#326,#26,.T.);
#405=EDGE_CURVE('',#330,#331,#168,.T.);
#406=EDGE_CURVE('',#328,#331,#27,.T.);
#407=EDGE_CURVE('',#332,#330,#169,.T.);
#408=EDGE_CURVE('',#332,#333,#170,.T.);
#409=EDGE_CURVE('',#331,#333,#171,.T.);
#410=EDGE_CURVE('',#334,#332,#28,.T.);
#411=EDGE_CURVE('',#334,#335,#172,.T.);
#412=EDGE_CURVE('',#333,#335,#29,.T.);
#413=EDGE_CURVE('',#327,#336,#30,.T.);
#414=EDGE_CURVE('',#337,#329,#31,.T.);
#415=EDGE_CURVE('',#336,#337,#173,.T.);
#416=EDGE_CURVE('',#336,#338,#174,.T.);
#417=EDGE_CURVE('',#339,#337,#175,.T.);
#418=EDGE_CURVE('',#338,#339,#176,.T.);
#419=EDGE_CURVE('',#338,#340,#32,.T.);
#420=EDGE_CURVE('',#341,#339,#33,.T.);
#421=EDGE_CURVE('',#340,#341,#177,.T.);
#422=EDGE_CURVE('',#340,#334,#178,.T.);
#423=EDGE_CURVE('',#335,#341,#179,.T.);
#424=EDGE_CURVE('',#342,#343,#180,.T.);
#425=EDGE_CURVE('',#342,#344,#181,.T.);
#426=EDGE_CURVE('',#345,#344,#182,.T.);
#427=EDGE_CURVE('',#343,#345,#183,.T.);
#428=EDGE_CURVE('',#346,#343,#34,.T.);
#429=EDGE_CURVE('',#347,#345,#35,.T.);
#430=EDGE_CURVE('',#346,#347,#184,.T.);
#431=EDGE_CURVE('',#346,#348,#185,.T.);
#432=EDGE_CURVE('',#349,#347,#186,.T.);
#433=EDGE_CURVE('',#348,#349,#187,.T.);
#434=EDGE_CURVE('',#350,#348,#36,.T.);
#435=EDGE_CURVE('',#351,#349,#37,.T.);
#436=EDGE_CURVE('',#350,#351,#188,.T.);
#437=EDGE_CURVE('',#350,#352,#189,.T.);
#438=EDGE_CURVE('',#353,#351,#190,.T.);
#439=EDGE_CURVE('',#352,#353,#191,.T.);
#440=EDGE_CURVE('',#354,#352,#38,.T.);
#441=EDGE_CURVE('',#355,#353,#39,.T.);
#442=EDGE_CURVE('',#354,#355,#192,.T.);
#443=EDGE_CURVE('',#354,#356,#193,.T.);
#444=EDGE_CURVE('',#357,#355,#194,.T.);
#445=EDGE_CURVE('',#356,#357,#195,.T.);
#446=EDGE_CURVE('',#342,#356,#40,.T.);
#447=EDGE_CURVE('',#344,#357,#41,.T.);
#448=EDGE_CURVE('',#358,#359,#42,.T.);
#449=EDGE_CURVE('',#360,#358,#196,.T.);
#450=EDGE_CURVE('',#361,#360,#43,.T.);
#451=EDGE_CURVE('',#361,#359,#197,.T.);
#452=EDGE_CURVE('',#362,#362,#44,.T.);
#453=EDGE_CURVE('',#362,#363,#198,.T.);
#454=EDGE_CURVE('',#363,#363,#45,.T.);
#455=EDGE_CURVE('',#364,#361,#199,.T.);
#456=EDGE_CURVE('',#365,#364,#200,.T.);
#457=EDGE_CURVE('',#365,#359,#201,.T.);
#458=EDGE_CURVE('',#365,#366,#202,.T.);
#459=EDGE_CURVE('',#366,#367,#46,.T.);
#460=EDGE_CURVE('',#367,#368,#203,.T.);
#461=EDGE_CURVE('',#368,#369,#47,.T.);
#462=EDGE_CURVE('',#369,#370,#204,.T.);
#463=EDGE_CURVE('',#370,#371,#48,.T.);
#464=EDGE_CURVE('',#371,#372,#205,.T.);
#465=EDGE_CURVE('',#372,#373,#49,.T.);
#466=EDGE_CURVE('',#373,#358,#206,.T.);
#467=EDGE_CURVE('',#374,#374,#50,.T.);
#468=EDGE_CURVE('',#375,#376,#207,.T.);
#469=EDGE_CURVE('',#376,#377,#208,.T.);
#470=EDGE_CURVE('',#377,#378,#209,.T.);
#471=EDGE_CURVE('',#378,#375,#210,.T.);
#472=EDGE_CURVE('',#379,#380,#211,.T.);
#473=EDGE_CURVE('',#380,#381,#212,.T.);
#474=EDGE_CURVE('',#381,#382,#213,.T.);
#475=EDGE_CURVE('',#382,#379,#214,.T.);
#476=EDGE_CURVE('',#383,#373,#215,.T.);
#477=EDGE_CURVE('',#383,#360,#216,.T.);
#478=EDGE_CURVE('',#384,#364,#217,.T.);
#479=EDGE_CURVE('',#384,#366,#218,.T.);
#480=EDGE_CURVE('',#374,#385,#219,.T.);
#481=EDGE_CURVE('',#385,#385,#51,.T.);
#482=EDGE_CURVE('',#386,#387,#220,.T.);
#483=EDGE_CURVE('',#387,#375,#221,.T.);
#484=EDGE_CURVE('',#386,#378,#222,.T.);
#485=EDGE_CURVE('',#388,#386,#223,.T.);
#486=EDGE_CURVE('',#388,#377,#224,.T.);
#487=EDGE_CURVE('',#389,#388,#225,.T.);
#488=EDGE_CURVE('',#389,#376,#226,.T.);
#489=EDGE_CURVE('',#387,#389,#227,.T.);
#490=EDGE_CURVE('',#390,#391,#228,.T.);
#491=EDGE_CURVE('',#391,#379,#229,.T.);
#492=EDGE_CURVE('',#390,#382,#230,.T.);
#493=EDGE_CURVE('',#392,#390,#231,.T.);
#494=EDGE_CURVE('',#392,#381,#232,.T.);
#495=EDGE_CURVE('',#393,#392,#233,.T.);
#496=EDGE_CURVE('',#393,#380,#234,.T.);
#497=EDGE_CURVE('',#391,#393,#235,.T.);
#498=EDGE_CURVE('',#394,#395,#236,.T.);
#499=EDGE_CURVE('',#394,#372,#237,.T.);
#500=EDGE_CURVE('',#395,#371,#238,.T.);
#501=EDGE_CURVE('',#396,#395,#52,.T.);
#502=EDGE_CURVE('',#396,#370,#239,.T.);
#503=EDGE_CURVE('',#396,#397,#240,.T.);
#504=EDGE_CURVE('',#397,#369,#241,.T.);
#505=EDGE_CURVE('',#398,#397,#53,.T.);
#506=EDGE_CURVE('',#398,#368,#242,.T.);
#507=EDGE_CURVE('',#398,#399,#243,.T.);
#508=EDGE_CURVE('',#399,#367,#244,.T.);
#509=EDGE_CURVE('',#384,#399,#54,.T.);
#510=EDGE_CURVE('',#394,#383,#55,.T.);
#511=ORIENTED_EDGE('',*,*,#400,.F.);
#512=ORIENTED_EDGE('',*,*,#401,.T.);
#513=ORIENTED_EDGE('',*,*,#402,.F.);
#514=ORIENTED_EDGE('',*,*,#403,.F.);
#515=ORIENTED_EDGE('',*,*,#404,.F.);
#516=ORIENTED_EDGE('',*,*,#405,.T.);
#517=ORIENTED_EDGE('',*,*,#406,.F.);
#518=ORIENTED_EDGE('',*,*,#401,.F.);
#519=ORIENTED_EDGE('',*,*,#407,.F.);
#520=ORIENTED_EDGE('',*,*,#408,.T.);
#521=ORIENTED_EDGE('',*,*,#409,.F.);
#522=ORIENTED_EDGE('',*,*,#405,.F.);
#523=ORIENTED_EDGE('',*,*,#410,.F.);
#524=ORIENTED_EDGE('',*,*,#411,.T.);
#525=ORIENTED_EDGE('',*,*,#412,.F.);
#526=ORIENTED_EDGE('',*,*,#408,.F.);
#527=ORIENTED_EDGE('',*,*,#413,.F.);
#528=ORIENTED_EDGE('',*,*,#403,.T.);
#529=ORIENTED_EDGE('',*,*,#414,.F.);
#530=ORIENTED_EDGE('',*,*,#415,.F.);
#531=ORIENTED_EDGE('',*,*,#416,.F.);
#532=ORIENTED_EDGE('',*,*,#415,.T.);
#533=ORIENTED_EDGE('',*,*,#417,.F.);
#534=ORIENTED_EDGE('',*,*,#418,.F.);
#535=ORIENTED_EDGE('',*,*,#419,.F.);
#536=ORIENTED_EDGE('',*,*,#418,.T.);
#537=ORIENTED_EDGE('',*,*,#420,.F.);
#538=ORIENTED_EDGE('',*,*,#421,.F.);
#539=ORIENTED_EDGE('',*,*,#422,.F.);
#540=ORIENTED_EDGE('',*,*,#421,.T.);
#541=ORIENTED_EDGE('',*,*,#423,.F.);
#542=ORIENTED_EDGE('',*,*,#411,.F.);
#543=ORIENTED_EDGE('',*,*,#424,.F.);
#544=ORIENTED_EDGE('',*,*,#425,.T.);
#545=ORIENTED_EDGE('',*,*,#426,.F.);
#546=ORIENTED_EDGE('',*,*,#427,.F.);
#547=ORIENTED_EDGE('',*,*,#428,.T.);
#548=ORIENTED_EDGE('',*,*,#427,.T.);
#549=ORIENTED_EDGE('',*,*,#429,.F.);
#550=ORIENTED_EDGE('',*,*,#430,.F.);
#551=ORIENTED_EDGE('',*,*,#431,.F.);
#552=ORIENTED_EDGE('',*,*,#430,.T.);
#553=ORIENTED_EDGE('',*,*,#432,.F.);
#554=ORIENTED_EDGE('',*,*,#433,.F.);
#555=ORIENTED_EDGE('',*,*,#434,.T.);
#556=ORIENTED_EDGE('',*,*,#433,.T.);
#557=ORIENTED_EDGE('',*,*,#435,.F.);
#558=ORIENTED_EDGE('',*,*,#436,.F.);
#559=ORIENTED_EDGE('',*,*,#437,.F.);
#560=ORIENTED_EDGE('',*,*,#436,.T.);
#561=ORIENTED_EDGE('',*,*,#438,.F.);
#562=ORIENTED_EDGE('',*,*,#439,.F.);
#563=ORIENTED_EDGE('',*,*,#440,.T.);
#564=ORIENTED_EDGE('',*,*,#439,.T.);
#565=ORIENTED_EDGE('',*,*,#441,.F.);
#566=ORIENTED_EDGE('',*,*,#442,.F.);
#567=ORIENTED_EDGE('',*,*,#443,.F.);
#568=ORIENTED_EDGE('',*,*,#442,.T.);
#569=ORIENTED_EDGE('',*,*,#444,.F.);
#570=ORIENTED_EDGE('',*,*,#445,.F.);
#571=ORIENTED_EDGE('',*,*,#446,.T.);
#572=ORIENTED_EDGE('',*,*,#445,.T.);
#573=ORIENTED_EDGE('',*,*,#447,.F.);
#574=ORIENTED_EDGE('',*,*,#425,.F.);
#575=ORIENTED_EDGE('',*,*,#447,.T.);
#576=ORIENTED_EDGE('',*,*,#444,.T.);
#577=ORIENTED_EDGE('',*,*,#441,.T.);
#578=ORIENTED_EDGE('',*,*,#438,.T.);
#579=ORIENTED_EDGE('',*,*,#435,.T.);
#580=ORIENTED_EDGE('',*,*,#432,.T.);
#581=ORIENTED_EDGE('',*,*,#429,.T.);
#582=ORIENTED_EDGE('',*,*,#426,.T.);
#583=ORIENTED_EDGE('',*,*,#412,.T.);
#584=ORIENTED_EDGE('',*,*,#423,.T.);
#585=ORIENTED_EDGE('',*,*,#420,.T.);
#586=ORIENTED_EDGE('',*,*,#417,.T.);
#587=ORIENTED_EDGE('',*,*,#414,.T.);
#588=ORIENTED_EDGE('',*,*,#402,.T.);
#589=ORIENTED_EDGE('',*,*,#406,.T.);
#590=ORIENTED_EDGE('',*,*,#409,.T.);
#591=ORIENTED_EDGE('',*,*,#410,.T.);
#592=ORIENTED_EDGE('',*,*,#407,.T.);
#593=ORIENTED_EDGE('',*,*,#404,.T.);
#594=ORIENTED_EDGE('',*,*,#400,.T.);
#595=ORIENTED_EDGE('',*,*,#413,.T.);
#596=ORIENTED_EDGE('',*,*,#416,.T.);
#597=ORIENTED_EDGE('',*,*,#419,.T.);
#598=ORIENTED_EDGE('',*,*,#422,.T.);
#599=ORIENTED_EDGE('',*,*,#446,.F.);
#600=ORIENTED_EDGE('',*,*,#424,.T.);
#601=ORIENTED_EDGE('',*,*,#428,.F.);
#602=ORIENTED_EDGE('',*,*,#431,.T.);
#603=ORIENTED_EDGE('',*,*,#434,.F.);
#604=ORIENTED_EDGE('',*,*,#437,.T.);
#605=ORIENTED_EDGE('',*,*,#440,.F.);
#606=ORIENTED_EDGE('',*,*,#443,.T.);
#607=ORIENTED_EDGE('',*,*,#448,.F.);
#608=ORIENTED_EDGE('',*,*,#449,.F.);
#609=ORIENTED_EDGE('',*,*,#450,.F.);
#610=ORIENTED_EDGE('',*,*,#451,.T.);
#611=ORIENTED_EDGE('',*,*,#452,.F.);
#612=ORIENTED_EDGE('',*,*,#453,.T.);
#613=ORIENTED_EDGE('',*,*,#454,.F.);
#614=ORIENTED_EDGE('',*,*,#453,.F.);
#615=ORIENTED_EDGE('',*,*,#451,.F.);
#616=ORIENTED_EDGE('',*,*,#455,.F.);
#617=ORIENTED_EDGE('',*,*,#456,.F.);
#618=ORIENTED_EDGE('',*,*,#457,.T.);
#619=ORIENTED_EDGE('',*,*,#448,.T.);
#620=ORIENTED_EDGE('',*,*,#457,.F.);
#621=ORIENTED_EDGE('',*,*,#458,.T.);
#622=ORIENTED_EDGE('',*,*,#459,.T.);
#623=ORIENTED_EDGE('',*,*,#460,.T.);
#624=ORIENTED_EDGE('',*,*,#461,.T.);
#625=ORIENTED_EDGE('',*,*,#462,.T.);
#626=ORIENTED_EDGE('',*,*,#463,.T.);
#627=ORIENTED_EDGE('',*,*,#464,.T.);
#628=ORIENTED_EDGE('',*,*,#465,.T.);
#629=ORIENTED_EDGE('',*,*,#466,.T.);
#630=ORIENTED_EDGE('',*,*,#467,.T.);
#631=ORIENTED_EDGE('',*,*,#468,.T.);
#632=ORIENTED_EDGE('',*,*,#469,.T.);
#633=ORIENTED_EDGE('',*,*,#470,.T.);
#634=ORIENTED_EDGE('',*,*,#471,.T.);
#635=ORIENTED_EDGE('',*,*,#472,.T.);
#636=ORIENTED_EDGE('',*,*,#473,.T.);
#637=ORIENTED_EDGE('',*,*,#474,.T.);
#638=ORIENTED_EDGE('',*,*,#475,.T.);
#639=ORIENTED_EDGE('',*,*,#452,.T.);
#640=ORIENTED_EDGE('',*,*,#449,.T.);
#641=ORIENTED_EDGE('',*,*,#466,.F.);
#642=ORIENTED_EDGE('',*,*,#476,.F.);
#643=ORIENTED_EDGE('',*,*,#477,.T.);
#644=ORIENTED_EDGE('',*,*,#456,.T.);
#645=ORIENTED_EDGE('',*,*,#478,.F.);
#646=ORIENTED_EDGE('',*,*,#479,.T.);
#647=ORIENTED_EDGE('',*,*,#458,.F.);
#648=ORIENTED_EDGE('',*,*,#467,.F.);
#649=ORIENTED_EDGE('',*,*,#480,.T.);
#650=ORIENTED_EDGE('',*,*,#481,.T.);
#651=ORIENTED_EDGE('',*,*,#480,.F.);
#652=ORIENTED_EDGE('',*,*,#482,.T.);
#653=ORIENTED_EDGE('',*,*,#483,.T.);
#654=ORIENTED_EDGE('',*,*,#471,.F.);
#655=ORIENTED_EDGE('',*,*,#484,.F.);
#656=ORIENTED_EDGE('',*,*,#485,.T.);
#657=ORIENTED_EDGE('',*,*,#484,.T.);
#658=ORIENTED_EDGE('',*,*,#470,.F.);
#659=ORIENTED_EDGE('',*,*,#486,.F.);
#660=ORIENTED_EDGE('',*,*,#487,.T.);
#661=ORIENTED_EDGE('',*,*,#486,.T.);
#662=ORIENTED_EDGE('',*,*,#469,.F.);
#663=ORIENTED_EDGE('',*,*,#488,.F.);
#664=ORIENTED_EDGE('',*,*,#489,.T.);
#665=ORIENTED_EDGE('',*,*,#488,.T.);
#666=ORIENTED_EDGE('',*,*,#468,.F.);
#667=ORIENTED_EDGE('',*,*,#483,.F.);
#668=ORIENTED_EDGE('',*,*,#490,.T.);
#669=ORIENTED_EDGE('',*,*,#491,.T.);
#670=ORIENTED_EDGE('',*,*,#475,.F.);
#671=ORIENTED_EDGE('',*,*,#492,.F.);
#672=ORIENTED_EDGE('',*,*,#493,.T.);
#673=ORIENTED_EDGE('',*,*,#492,.T.);
#674=ORIENTED_EDGE('',*,*,#474,.F.);
#675=ORIENTED_EDGE('',*,*,#494,.F.);
#676=ORIENTED_EDGE('',*,*,#495,.T.);
#677=ORIENTED_EDGE('',*,*,#494,.T.);
#678=ORIENTED_EDGE('',*,*,#473,.F.);
#679=ORIENTED_EDGE('',*,*,#496,.F.);
#680=ORIENTED_EDGE('',*,*,#497,.T.);
#681=ORIENTED_EDGE('',*,*,#496,.T.);
#682=ORIENTED_EDGE('',*,*,#472,.F.);
#683=ORIENTED_EDGE('',*,*,#491,.F.);
#684=ORIENTED_EDGE('',*,*,#498,.F.);
#685=ORIENTED_EDGE('',*,*,#499,.T.);
#686=ORIENTED_EDGE('',*,*,#464,.F.);
#687=ORIENTED_EDGE('',*,*,#500,.F.);
#688=ORIENTED_EDGE('',*,*,#501,.T.);
#689=ORIENTED_EDGE('',*,*,#500,.T.);
#690=ORIENTED_EDGE('',*,*,#463,.F.);
#691=ORIENTED_EDGE('',*,*,#502,.F.);
#692=ORIENTED_EDGE('',*,*,#503,.F.);
#693=ORIENTED_EDGE('',*,*,#502,.T.);
#694=ORIENTED_EDGE('',*,*,#462,.F.);
#695=ORIENTED_EDGE('',*,*,#504,.F.);
#696=ORIENTED_EDGE('',*,*,#505,.T.);
#697=ORIENTED_EDGE('',*,*,#504,.T.);
#698=ORIENTED_EDGE('',*,*,#461,.F.);
#699=ORIENTED_EDGE('',*,*,#506,.F.);
#700=ORIENTED_EDGE('',*,*,#507,.F.);
#701=ORIENTED_EDGE('',*,*,#506,.T.);
#702=ORIENTED_EDGE('',*,*,#460,.F.);
#703=ORIENTED_EDGE('',*,*,#508,.F.);
#704=ORIENTED_EDGE('',*,*,#509,.T.);
#705=ORIENTED_EDGE('',*,*,#508,.T.);
#706=ORIENTED_EDGE('',*,*,#459,.F.);
#707=ORIENTED_EDGE('',*,*,#479,.F.);
#708=ORIENTED_EDGE('',*,*,#510,.T.);
#709=ORIENTED_EDGE('',*,*,#476,.T.);
#710=ORIENTED_EDGE('',*,*,#465,.F.);
#711=ORIENTED_EDGE('',*,*,#499,.F.);
#712=ORIENTED_EDGE('',*,*,#450,.T.);
#713=ORIENTED_EDGE('',*,*,#477,.F.);
#714=ORIENTED_EDGE('',*,*,#510,.F.);
#715=ORIENTED_EDGE('',*,*,#498,.T.);
#716=ORIENTED_EDGE('',*,*,#501,.F.);
#717=ORIENTED_EDGE('',*,*,#503,.T.);
#718=ORIENTED_EDGE('',*,*,#505,.F.);
#719=ORIENTED_EDGE('',*,*,#507,.T.);
#720=ORIENTED_EDGE('',*,*,#509,.F.);
#721=ORIENTED_EDGE('',*,*,#478,.T.);
#722=ORIENTED_EDGE('',*,*,#455,.T.);
#723=ORIENTED_EDGE('',*,*,#454,.T.);
#724=ORIENTED_EDGE('',*,*,#497,.F.);
#725=ORIENTED_EDGE('',*,*,#490,.F.);
#726=ORIENTED_EDGE('',*,*,#493,.F.);
#727=ORIENTED_EDGE('',*,*,#495,.F.);
#728=ORIENTED_EDGE('',*,*,#489,.F.);
#729=ORIENTED_EDGE('',*,*,#482,.F.);
#730=ORIENTED_EDGE('',*,*,#485,.F.);
#731=ORIENTED_EDGE('',*,*,#487,.F.);
#732=ORIENTED_EDGE('',*,*,#481,.F.);
#733=PLANE('',#817);
#734=PLANE('',#821);
#735=PLANE('',#828);
#736=PLANE('',#832);
#737=PLANE('',#833);
#738=PLANE('',#837);
#739=PLANE('',#841);
#740=PLANE('',#845);
#741=PLANE('',#849);
#742=PLANE('',#850);
#743=PLANE('',#851);
#744=PLANE('',#858);
#745=PLANE('',#859);
#746=PLANE('',#865);
#747=PLANE('',#866);
#748=PLANE('',#869);
#749=PLANE('',#870);
#750=PLANE('',#871);
#751=PLANE('',#872);
#752=PLANE('',#873);
#753=PLANE('',#874);
#754=PLANE('',#875);
#755=PLANE('',#876);
#756=PLANE('',#877);
#757=PLANE('',#880);
#758=PLANE('',#883);
#759=PLANE('',#888);
#760=ADVANCED_FACE('',(#71),#733,.T.);
#761=ADVANCED_FACE('',(#72),#56,.F.);
#762=ADVANCED_FACE('',(#73),#734,.T.);
#763=ADVANCED_FACE('',(#74),#57,.F.);
#764=ADVANCED_FACE('',(#75),#58,.F.);
#765=ADVANCED_FACE('',(#76),#735,.T.);
#766=ADVANCED_FACE('',(#77),#59,.F.);
#767=ADVANCED_FACE('',(#78),#736,.T.);
#768=ADVANCED_FACE('',(#79),#737,.T.);
#769=ADVANCED_FACE('',(#80),#60,.T.);
#770=ADVANCED_FACE('',(#81),#738,.T.);
#771=ADVANCED_FACE('',(#82),#61,.T.);
#772=ADVANCED_FACE('',(#83),#739,.T.);
#773=ADVANCED_FACE('',(#84),#62,.T.);
#774=ADVANCED_FACE('',(#85),#740,.T.);
#775=ADVANCED_FACE('',(#86),#63,.T.);
#776=ADVANCED_FACE('',(#87,#17),#741,.T.);
#777=ADVANCED_FACE('',(#88),#742,.T.);
#778=ADVANCED_FACE('',(#89),#743,.F.);
#779=ADVANCED_FACE('',(#90),#64,.T.);
#780=ADVANCED_FACE('',(#91),#65,.F.);
#781=ADVANCED_FACE('',(#92),#744,.T.);
#782=ADVANCED_FACE('',(#93,#18,#19,#20,#21),#745,.T.);
#783=ADVANCED_FACE('',(#94),#746,.T.);
#784=ADVANCED_FACE('',(#95),#747,.T.);
#785=ADVANCED_FACE('',(#96),#66,.F.);
#786=ADVANCED_FACE('',(#97),#748,.T.);
#787=ADVANCED_FACE('',(#98),#749,.T.);
#788=ADVANCED_FACE('',(#99),#750,.T.);
#789=ADVANCED_FACE('',(#100),#751,.T.);
#790=ADVANCED_FACE('',(#101),#752,.T.);
#791=ADVANCED_FACE('',(#102),#753,.T.);
#792=ADVANCED_FACE('',(#103),#754,.T.);
#793=ADVANCED_FACE('',(#104),#755,.T.);
#794=ADVANCED_FACE('',(#105),#756,.T.);
#795=ADVANCED_FACE('',(#106),#67,.T.);
#796=ADVANCED_FACE('',(#107),#757,.T.);
#797=ADVANCED_FACE('',(#108),#68,.T.);
#798=ADVANCED_FACE('',(#109),#758,.T.);
#799=ADVANCED_FACE('',(#110),#69,.T.);
#800=ADVANCED_FACE('',(#111),#70,.T.);
#801=ADVANCED_FACE('',(#112,#22,#23,#24,#25),#759,.F.);
#802=CLOSED_SHELL('',(#760,#761,#762,#763,#764,#765,#766,#767,#768,#769,
#770,#771,#772,#773,#774,#775,#776,#777,#778));
#803=CLOSED_SHELL('',(#779,#780,#781,#782,#783,#784,#785,#786,#787,#788,
#789,#790,#791,#792,#793,#794,#795,#796,#797,#798,#799,#800,#801));
#804=DERIVED_UNIT_ELEMENT(#806,1.);
#805=DERIVED_UNIT_ELEMENT(#1349,-3.);
#806=(
MASS_UNIT()
NAMED_UNIT(*)
SI_UNIT(.KILO.,.GRAM.)
);
#807=DERIVED_UNIT((#804,#805));
#808=MEASURE_REPRESENTATION_ITEM('density measure',
POSITIVE_RATIO_MEASURE(7850.),#807);
#809=PROPERTY_DEFINITION_REPRESENTATION(#814,#811);
#810=PROPERTY_DEFINITION_REPRESENTATION(#815,#812);
#811=REPRESENTATION('material name',(#813),#1346);
#812=REPRESENTATION('density',(#808),#1346);
#813=DESCRIPTIVE_REPRESENTATION_ITEM('Steel','Steel');
#814=PROPERTY_DEFINITION('material property','material name',#1356);
#815=PROPERTY_DEFINITION('material property','density of part',#1356);
#816=AXIS2_PLACEMENT_3D('',#1116,#889,#890);
#817=AXIS2_PLACEMENT_3D('',#1117,#891,#892);
#818=AXIS2_PLACEMENT_3D('',#1126,#897,#898);
#819=AXIS2_PLACEMENT_3D('',#1128,#899,#900);
#820=AXIS2_PLACEMENT_3D('',#1131,#902,#903);
#821=AXIS2_PLACEMENT_3D('',#1132,#904,#905);
#822=AXIS2_PLACEMENT_3D('',#1138,#909,#910);
#823=AXIS2_PLACEMENT_3D('',#1140,#911,#912);
#824=AXIS2_PLACEMENT_3D('',#1143,#914,#915);
#825=AXIS2_PLACEMENT_3D('',#1144,#916,#917);
#826=AXIS2_PLACEMENT_3D('',#1146,#918,#919);
#827=AXIS2_PLACEMENT_3D('',#1148,#920,#921);
#828=AXIS2_PLACEMENT_3D('',#1150,#923,#924);
#829=AXIS2_PLACEMENT_3D('',#1156,#928,#929);
#830=AXIS2_PLACEMENT_3D('',#1158,#930,#931);
#831=AXIS2_PLACEMENT_3D('',#1160,#932,#933);
#832=AXIS2_PLACEMENT_3D('',#1162,#935,#936);
#833=AXIS2_PLACEMENT_3D('',#1165,#939,#940);
#834=AXIS2_PLACEMENT_3D('',#1174,#945,#946);
#835=AXIS2_PLACEMENT_3D('',#1176,#947,#948);
#836=AXIS2_PLACEMENT_3D('',#1178,#949,#950);
#837=AXIS2_PLACEMENT_3D('',#1180,#952,#953);
#838=AXIS2_PLACEMENT_3D('',#1186,#957,#958);
#839=AXIS2_PLACEMENT_3D('',#1188,#959,#960);
#840=AXIS2_PLACEMENT_3D('',#1190,#961,#962);
#841=AXIS2_PLACEMENT_3D('',#1192,#964,#965);
#842=AXIS2_PLACEMENT_3D('',#1198,#969,#970);
#843=AXIS2_PLACEMENT_3D('',#1200,#971,#972);
#844=AXIS2_PLACEMENT_3D('',#1202,#973,#974);
#845=AXIS2_PLACEMENT_3D('',#1204,#976,#977);
#846=AXIS2_PLACEMENT_3D('',#1210,#981,#982);
#847=AXIS2_PLACEMENT_3D('',#1211,#983,#984);
#848=AXIS2_PLACEMENT_3D('',#1212,#985,#986);
#849=AXIS2_PLACEMENT_3D('',#1213,#987,#988);
#850=AXIS2_PLACEMENT_3D('',#1214,#989,#990);
#851=AXIS2_PLACEMENT_3D('',#1215,#991,#992);
#852=AXIS2_PLACEMENT_3D('',#1216,#993,#994);
#853=AXIS2_PLACEMENT_3D('',#1219,#995,#996);
#854=AXIS2_PLACEMENT_3D('',#1223,#998,#999);
#855=AXIS2_PLACEMENT_3D('',#1225,#1001,#1002);
#856=AXIS2_PLACEMENT_3D('',#1227,#1003,#1004);
#857=AXIS2_PLACEMENT_3D('',#1230,#1006,#1007);
#858=AXIS2_PLACEMENT_3D('',#1231,#1008,#1009);
#859=AXIS2_PLACEMENT_3D('',#1237,#1013,#1014);
#860=AXIS2_PLACEMENT_3D('',#1241,#1016,#1017);
#861=AXIS2_PLACEMENT_3D('',#1245,#1019,#1020);
#862=AXIS2_PLACEMENT_3D('',#1249,#1022,#1023);
#863=AXIS2_PLACEMENT_3D('',#1253,#1025,#1026);
#864=AXIS2_PLACEMENT_3D('',#1256,#1028,#1029);
#865=AXIS2_PLACEMENT_3D('',#1273,#1038,#1039);
#866=AXIS2_PLACEMENT_3D('',#1277,#1042,#1043);
#867=AXIS2_PLACEMENT_3D('',#1281,#1046,#1047);
#868=AXIS2_PLACEMENT_3D('',#1284,#1049,#1050);
#869=AXIS2_PLACEMENT_3D('',#1285,#1051,#1052);
#870=AXIS2_PLACEMENT_3D('',#1291,#1056,#1057);
#871=AXIS2_PLACEMENT_3D('',#1295,#1060,#1061);
#872=AXIS2_PLACEMENT_3D('',#1299,#1064,#1065);
#873=AXIS2_PLACEMENT_3D('',#1301,#1067,#1068);
#874=AXIS2_PLACEMENT_3D('',#1307,#1072,#1073);
#875=AXIS2_PLACEMENT_3D('',#1311,#1076,#1077);
#876=AXIS2_PLACEMENT_3D('',#1315,#1080,#1081);
#877=AXIS2_PLACEMENT_3D('',#1317,#1083,#1084);
#878=AXIS2_PLACEMENT_3D('',#1323,#1088,#1089);
#879=AXIS2_PLACEMENT_3D('',#1325,#1090,#1091);
#880=AXIS2_PLACEMENT_3D('',#1327,#1093,#1094);
#881=AXIS2_PLACEMENT_3D('',#1331,#1097,#1098);
#882=AXIS2_PLACEMENT_3D('',#1333,#1099,#1100);
#883=AXIS2_PLACEMENT_3D('',#1335,#1102,#1103);
#884=AXIS2_PLACEMENT_3D('',#1339,#1106,#1107);
#885=AXIS2_PLACEMENT_3D('',#1340,#1108,#1109);
#886=AXIS2_PLACEMENT_3D('',#1341,#1110,#1111);
#887=AXIS2_PLACEMENT_3D('',#1342,#1112,#1113);
#888=AXIS2_PLACEMENT_3D('',#1343,#1114,#1115);
#889=DIRECTION('axis',(0.,0.,1.));
#890=DIRECTION('refdir',(1.,0.,0.));
#891=DIRECTION('center_axis',(-1.25448929336176E-16,0.,-1.));
#892=DIRECTION('ref_axis',(-1.,0.,1.25448929336176E-16));
#893=DIRECTION('',(1.,0.,-1.25448929336176E-16));
#894=DIRECTION('',(0.,1.,0.));
#895=DIRECTION('',(-1.,0.,1.25448929336176E-16));
#896=DIRECTION('',(0.,1.,0.));
#897=DIRECTION('center_axis',(0.,1.,0.));
#898=DIRECTION('ref_axis',(-1.,0.,0.));
#899=DIRECTION('center_axis',(0.,1.,0.));
#900=DIRECTION('ref_axis',(-1.,0.,0.));
#901=DIRECTION('',(0.,1.,0.));
#902=DIRECTION('center_axis',(0.,-1.,0.));
#903=DIRECTION('ref_axis',(-1.,0.,0.));
#904=DIRECTION('center_axis',(1.,0.,0.));
#905=DIRECTION('ref_axis',(0.,0.,-1.));
#906=DIRECTION('',(0.,0.,1.));
#907=DIRECTION('',(0.,1.,0.));
#908=DIRECTION('',(0.,0.,-1.));
#909=DIRECTION('center_axis',(0.,1.,0.));
#910=DIRECTION('ref_axis',(-1.26882631385732E-15,0.,-1.));
#911=DIRECTION('center_axis',(0.,1.,0.));
#912=DIRECTION('ref_axis',(-1.26882631385732E-15,0.,-1.));
#913=DIRECTION('',(0.,1.,0.));
#914=DIRECTION('center_axis',(0.,-1.,0.));
#915=DIRECTION('ref_axis',(-1.26882631385732E-15,0.,-1.));
#916=DIRECTION('center_axis',(0.,1.,0.));
#917=DIRECTION('ref_axis',(-1.58603289232165E-16,0.,1.));
#918=DIRECTION('center_axis',(0.,1.,0.));
#919=DIRECTION('ref_axis',(-1.58603289232165E-16,0.,1.));
#920=DIRECTION('center_axis',(0.,-1.,0.));
#921=DIRECTION('ref_axis',(-1.58603289232165E-16,0.,1.));
#922=DIRECTION('',(0.,1.,0.));
#923=DIRECTION('center_axis',(-1.,0.,0.));
#924=DIRECTION('ref_axis',(0.,0.,1.));
#925=DIRECTION('',(0.,0.,-1.));
#926=DIRECTION('',(0.,0.,1.));
#927=DIRECTION('',(0.,1.,0.));
#928=DIRECTION('center_axis',(0.,1.,0.));
#929=DIRECTION('ref_axis',(1.,0.,0.));
#930=DIRECTION('center_axis',(0.,1.,0.));
#931=DIRECTION('ref_axis',(1.,0.,0.));
#932=DIRECTION('center_axis',(0.,-1.,0.));
#933=DIRECTION('ref_axis',(1.,0.,0.));
#934=DIRECTION('',(0.,1.,0.));
#935=DIRECTION('center_axis',(0.,0.,1.));
#936=DIRECTION('ref_axis',(1.,0.,0.));
#937=DIRECTION('',(-1.,0.,0.));
#938=DIRECTION('',(1.,0.,0.));
#939=DIRECTION('center_axis',(0.,0.,-1.));
#940=DIRECTION('ref_axis',(-1.,0.,0.));
#941=DIRECTION('',(1.,0.,0.));
#942=DIRECTION('',(0.,1.,0.));
#943=DIRECTION('',(-1.,0.,0.));
#944=DIRECTION('',(0.,1.,0.));
#945=DIRECTION('center_axis',(0.,1.,0.));
#946=DIRECTION('ref_axis',(1.,0.,0.));
#947=DIRECTION('center_axis',(0.,1.,0.));
#948=DIRECTION('ref_axis',(1.,0.,0.));
#949=DIRECTION('center_axis',(0.,1.,0.));
#950=DIRECTION('ref_axis',(1.,0.,0.));
#951=DIRECTION('',(0.,1.,0.));
#952=DIRECTION('center_axis',(1.,0.,-8.89958336372871E-17));
#953=DIRECTION('ref_axis',(-8.89958336372871E-17,0.,-1.));
#954=DIRECTION('',(8.89958336372871E-17,0.,1.));
#955=DIRECTION('',(-8.89958336372871E-17,0.,-1.));
#956=DIRECTION('',(0.,1.,0.));
#957=DIRECTION('center_axis',(0.,1.,0.));
#958=DIRECTION('ref_axis',(0.,0.,1.));
#959=DIRECTION('center_axis',(0.,1.,0.));
#960=DIRECTION('ref_axis',(0.,0.,1.));
#961=DIRECTION('center_axis',(0.,1.,0.));
#962=DIRECTION('ref_axis',(0.,0.,1.));
#963=DIRECTION('',(0.,1.,0.));
#964=DIRECTION('center_axis',(2.25425994847747E-16,0.,1.));
#965=DIRECTION('ref_axis',(1.,0.,-2.25425994847747E-16));
#966=DIRECTION('',(-1.,0.,2.25425994847747E-16));
#967=DIRECTION('',(1.,0.,-2.25425994847747E-16));
#968=DIRECTION('',(0.,1.,0.));
#969=DIRECTION('center_axis',(0.,1.,0.));
#970=DIRECTION('ref_axis',(-1.,0.,0.));
#971=DIRECTION('center_axis',(0.,1.,0.));
#972=DIRECTION('ref_axis',(-1.,0.,0.));
#973=DIRECTION('center_axis',(0.,1.,0.));
#974=DIRECTION('ref_axis',(-1.,0.,0.));
#975=DIRECTION('',(0.,1.,0.));
#976=DIRECTION('center_axis',(-1.,0.,0.));
#977=DIRECTION('ref_axis',(0.,0.,1.));
#978=DIRECTION('',(0.,0.,-1.));
#979=DIRECTION('',(0.,0.,1.));
#980=DIRECTION('',(0.,1.,0.));
#981=DIRECTION('center_axis',(0.,1.,0.));
#982=DIRECTION('ref_axis',(-1.26882631385732E-15,0.,-1.));
#983=DIRECTION('center_axis',(0.,1.,0.));
#984=DIRECTION('ref_axis',(-1.26882631385732E-15,0.,-1.));
#985=DIRECTION('center_axis',(0.,1.,0.));
#986=DIRECTION('ref_axis',(-1.26882631385732E-15,0.,-1.));
#987=DIRECTION('center_axis',(0.,1.,0.));
#988=DIRECTION('ref_axis',(1.,0.,0.));
#989=DIRECTION('center_axis',(0.,1.,0.));
#990=DIRECTION('ref_axis',(1.,0.,0.));
#991=DIRECTION('center_axis',(0.,1.,0.));
#992=DIRECTION('ref_axis',(1.,0.,0.));
#993=DIRECTION('center_axis',(0.,-1.,0.));
#994=DIRECTION('ref_axis',(-1.77635683940025E-15,0.,-1.));
#995=DIRECTION('center_axis',(0.,1.,0.));
#996=DIRECTION('ref_axis',(-1.77635683940025E-15,0.,-1.));
#997=DIRECTION('',(0.,1.,0.));
#998=DIRECTION('center_axis',(0.,-1.,0.));
#999=DIRECTION('ref_axis',(-1.,0.,1.77635683940025E-15));
#1000=DIRECTION('',(0.,1.,0.));
#1001=DIRECTION('center_axis',(0.,-1.,0.));
#1002=DIRECTION('ref_axis',(-1.,0.,0.));
#1003=DIRECTION('center_axis',(0.,-1.,0.));
#1004=DIRECTION('ref_axis',(-1.,0.,0.));
#1005=DIRECTION('',(0.,-1.,0.));
#1006=DIRECTION('center_axis',(0.,1.,0.));
#1007=DIRECTION('ref_axis',(-1.,0.,0.));
#1008=DIRECTION('center_axis',(0.,0.,1.));
#1009=DIRECTION('ref_axis',(0.,1.,0.));
#1010=DIRECTION('',(-1.,0.,0.));
#1011=DIRECTION('',(0.,-1.,0.));
#1012=DIRECTION('',(-1.,0.,0.));
#1013=DIRECTION('center_axis',(0.,1.,0.));
#1014=DIRECTION('ref_axis',(-1.,0.,0.));
#1015=DIRECTION('',(0.,0.,1.));
#1016=DIRECTION('center_axis',(0.,1.,0.));
#1017=DIRECTION('ref_axis',(-1.,0.,6.34413156928661E-16));
#1018=DIRECTION('',(1.,0.,0.));
#1019=DIRECTION('center_axis',(0.,1.,0.));
#1020=DIRECTION('ref_axis',(2.06184276001814E-15,0.,1.));
#1021=DIRECTION('',(0.,0.,-1.));
#1022=DIRECTION('center_axis',(0.,1.,0.));
#1023=DIRECTION('ref_axis',(1.,0.,-6.3441315692866E-16));
#1024=DIRECTION('',(-1.,0.,0.));
#1025=DIRECTION('center_axis',(0.,1.,0.));
#1026=DIRECTION('ref_axis',(2.53765262771465E-15,0.,-1.));
#1027=DIRECTION('',(-1.,0.,0.));
#1028=DIRECTION('center_axis',(0.,-1.,0.));
#1029=DIRECTION('ref_axis',(-1.,0.,0.));
#1030=DIRECTION('',(-1.,0.,0.));
#1031=DIRECTION('',(0.,0.,-1.));
#1032=DIRECTION('',(1.,0.,0.));
#1033=DIRECTION('',(0.,0.,1.));
#1034=DIRECTION('',(-1.,0.,0.));
#1035=DIRECTION('',(0.,0.,-1.));
#1036=DIRECTION('',(1.,0.,0.));
#1037=DIRECTION('',(0.,0.,1.));
#1038=DIRECTION('center_axis',(0.,2.66453525910038E-15,-1.));
#1039=DIRECTION('ref_axis',(0.,-1.,-2.66453525910038E-15));
#1040=DIRECTION('',(0.,1.,0.));
#1041=DIRECTION('',(-1.,0.,0.));
#1042=DIRECTION('center_axis',(-1.,0.,0.));
#1043=DIRECTION('ref_axis',(0.,0.,1.));
#1044=DIRECTION('',(0.,0.,-1.));
#1045=DIRECTION('',(0.,1.,0.));
#1046=DIRECTION('center_axis',(0.,1.,0.));
#1047=DIRECTION('ref_axis',(-1.,0.,0.));
#1048=DIRECTION('',(0.,-1.,0.));
#1049=DIRECTION('center_axis',(0.,-1.,0.));
#1050=DIRECTION('ref_axis',(-1.,0.,0.));
#1051=DIRECTION('center_axis',(-1.,0.,0.));
#1052=DIRECTION('ref_axis',(0.,0.,1.));
#1053=DIRECTION('',(0.,0.,1.));
#1054=DIRECTION('',(0.,1.,0.));
#1055=DIRECTION('',(0.,1.,0.));
#1056=DIRECTION('center_axis',(0.,0.,1.));
#1057=DIRECTION('ref_axis',(1.,0.,0.));
#1058=DIRECTION('',(1.,0.,0.));
#1059=DIRECTION('',(0.,1.,0.));
#1060=DIRECTION('center_axis',(1.,0.,0.));
#1061=DIRECTION('ref_axis',(0.,0.,-1.));
#1062=DIRECTION('',(0.,0.,-1.));
#1063=DIRECTION('',(0.,1.,0.));
#1064=DIRECTION('center_axis',(0.,0.,-1.));
#1065=DIRECTION('ref_axis',(-1.,0.,0.));
#1066=DIRECTION('',(-1.,0.,0.));
#1067=DIRECTION('center_axis',(-1.,0.,0.));
#1068=DIRECTION('ref_axis',(0.,0.,1.));
#1069=DIRECTION('',(0.,0.,1.));
#1070=DIRECTION('',(0.,1.,0.));
#1071=DIRECTION('',(0.,1.,0.));
#1072=DIRECTION('center_axis',(0.,0.,1.));
#1073=DIRECTION('ref_axis',(1.,0.,0.));
#1074=DIRECTION('',(1.,0.,0.));
#1075=DIRECTION('',(0.,1.,0.));
#1076=DIRECTION('center_axis',(1.,0.,0.));
#1077=DIRECTION('ref_axis',(0.,0.,-1.));
#1078=DIRECTION('',(0.,0.,-1.));
#1079=DIRECTION('',(0.,1.,0.));
#1080=DIRECTION('center_axis',(0.,0.,-1.));
#1081=DIRECTION('ref_axis',(-1.,0.,0.));
#1082=DIRECTION('',(-1.,0.,0.));
#1083=DIRECTION('center_axis',(0.,0.,-1.));
#1084=DIRECTION('ref_axis',(-1.,0.,0.));
#1085=DIRECTION('',(1.,0.,0.));
#1086=DIRECTION('',(0.,1.,0.));
#1087=DIRECTION('',(0.,1.,0.));
#1088=DIRECTION('center_axis',(0.,1.,0.));
#1089=DIRECTION('ref_axis',(1.,0.,-6.3441315692866E-16));
#1090=DIRECTION('center_axis',(0.,1.,0.));
#1091=DIRECTION('ref_axis',(1.,0.,-6.3441315692866E-16));
#1092=DIRECTION('',(0.,1.,0.));
#1093=DIRECTION('center_axis',(1.,0.,0.));
#1094=DIRECTION('ref_axis',(0.,0.,-1.));
#1095=DIRECTION('',(0.,0.,1.));
#1096=DIRECTION('',(0.,1.,0.));
#1097=DIRECTION('center_axis',(0.,1.,0.));
#1098=DIRECTION('ref_axis',(2.06184276001814E-15,0.,1.));
#1099=DIRECTION('center_axis',(0.,1.,0.));
#1100=DIRECTION('ref_axis',(2.06184276001814E-15,0.,1.));
#1101=DIRECTION('',(0.,1.,0.));
#1102=DIRECTION('center_axis',(0.,0.,1.));
#1103=DIRECTION('ref_axis',(1.,0.,0.));
#1104=DIRECTION('',(-1.,0.,0.));
#1105=DIRECTION('',(0.,1.,0.));
#1106=DIRECTION('center_axis',(0.,1.,0.));
#1107=DIRECTION('ref_axis',(-1.,0.,6.34413156928661E-16));
#1108=DIRECTION('center_axis',(0.,1.,0.));
#1109=DIRECTION('ref_axis',(-1.,0.,6.34413156928661E-16));
#1110=DIRECTION('center_axis',(0.,1.,0.));
#1111=DIRECTION('ref_axis',(2.53765262771465E-15,0.,-1.));
#1112=DIRECTION('center_axis',(0.,1.,0.));
#1113=DIRECTION('ref_axis',(2.53765262771465E-15,0.,-1.));
#1114=DIRECTION('center_axis',(0.,1.,0.));
#1115=DIRECTION('ref_axis',(-1.,0.,0.));
#1116=CARTESIAN_POINT('',(0.,0.,0.));
#1117=CARTESIAN_POINT('Origin',(7.40000000000001,0.,19.9));
#1118=CARTESIAN_POINT('',(-28.,2.,19.9));
#1119=CARTESIAN_POINT('',(7.40000000000001,2.,19.9));
#1120=CARTESIAN_POINT('',(7.40000000000001,2.,19.9));
#1121=CARTESIAN_POINT('',(-28.,4.,19.9));
#1122=CARTESIAN_POINT('',(-28.,0.,19.9));
#1123=CARTESIAN_POINT('',(7.40000000000001,4.,19.9));
#1124=CARTESIAN_POINT('',(7.40000000000001,4.,19.9));
#1125=CARTESIAN_POINT('',(7.40000000000001,0.,19.9));
#1126=CARTESIAN_POINT('Origin',(-28.,0.,12.9));
#1127=CARTESIAN_POINT('',(-35.,2.,12.9));
#1128=CARTESIAN_POINT('Origin',(-28.,2.,12.9));
#1129=CARTESIAN_POINT('',(-35.,4.,12.9));
#1130=CARTESIAN_POINT('',(-35.,0.,12.9));
#1131=CARTESIAN_POINT('Origin',(-28.,4.,12.9));
#1132=CARTESIAN_POINT('Origin',(-35.,0.,12.9));
#1133=CARTESIAN_POINT('',(-35.,2.,-33.));
#1134=CARTESIAN_POINT('',(-35.,2.,12.9));
#1135=CARTESIAN_POINT('',(-35.,4.,-33.));
#1136=CARTESIAN_POINT('',(-35.,0.,-33.));
#1137=CARTESIAN_POINT('',(-35.,4.,12.9));
#1138=CARTESIAN_POINT('Origin',(-28.,0.,-33.));
#1139=CARTESIAN_POINT('',(-28.,2.,-40.));
#1140=CARTESIAN_POINT('Origin',(-28.,2.,-33.));
#1141=CARTESIAN_POINT('',(-28.,4.,-40.));
#1142=CARTESIAN_POINT('',(-28.,0.,-40.));
#1143=CARTESIAN_POINT('Origin',(-28.,4.,-33.));
#1144=CARTESIAN_POINT('Origin',(7.40000000000001,0.,12.9));
#1145=CARTESIAN_POINT('',(14.4,2.,12.9));
#1146=CARTESIAN_POINT('Origin',(7.40000000000001,2.,12.9));
#1147=CARTESIAN_POINT('',(14.4,4.,12.9));
#1148=CARTESIAN_POINT('Origin',(7.40000000000001,4.,12.9));
#1149=CARTESIAN_POINT('',(14.4,0.,12.9));
#1150=CARTESIAN_POINT('Origin',(14.4,0.,-33.));
#1151=CARTESIAN_POINT('',(14.4,2.,-33.));
#1152=CARTESIAN_POINT('',(14.4,2.,-33.));
#1153=CARTESIAN_POINT('',(14.4,4.,-33.));
#1154=CARTESIAN_POINT('',(14.4,4.,-33.));
#1155=CARTESIAN_POINT('',(14.4,0.,-33.));
#1156=CARTESIAN_POINT('Origin',(7.40000000000001,0.,-33.));
#1157=CARTESIAN_POINT('',(7.40000000000001,2.,-40.));
#1158=CARTESIAN_POINT('Origin',(7.40000000000001,2.,-33.));
#1159=CARTESIAN_POINT('',(7.4,4.,-40.));
#1160=CARTESIAN_POINT('Origin',(7.40000000000001,4.,-33.));
#1161=CARTESIAN_POINT('',(7.40000000000001,0.,-40.));
#1162=CARTESIAN_POINT('Origin',(-28.,0.,-40.));
#1163=CARTESIAN_POINT('',(-28.,2.,-40.));
#1164=CARTESIAN_POINT('',(-28.,4.,-40.));
#1165=CARTESIAN_POINT('Origin',(9.4,0.,-42.));
#1166=CARTESIAN_POINT('',(-30.,0.,-42.));
#1167=CARTESIAN_POINT('',(9.4,0.,-42.));
#1168=CARTESIAN_POINT('',(-30.,0.,-42.));
#1169=CARTESIAN_POINT('',(-30.,4.,-42.));
#1170=CARTESIAN_POINT('',(-30.,0.,-42.));
#1171=CARTESIAN_POINT('',(9.4,4.,-42.));
#1172=CARTESIAN_POINT('',(-30.,4.,-42.));
#1173=CARTESIAN_POINT('',(9.4,0.,-42.));
#1174=CARTESIAN_POINT('Origin',(9.4,0.,-35.));
#1175=CARTESIAN_POINT('',(16.4,0.,-35.));
#1176=CARTESIAN_POINT('Origin',(9.4,0.,-35.));
#1177=CARTESIAN_POINT('',(16.4,4.,-35.));
#1178=CARTESIAN_POINT('Origin',(9.4,4.,-35.));
#1179=CARTESIAN_POINT('',(16.4,0.,-35.));
#1180=CARTESIAN_POINT('Origin',(16.4,0.,14.9));
#1181=CARTESIAN_POINT('',(16.4,0.,14.9));
#1182=CARTESIAN_POINT('',(16.4,0.,-35.));
#1183=CARTESIAN_POINT('',(16.4,4.,14.9));
#1184=CARTESIAN_POINT('',(16.4,4.,-35.));
#1185=CARTESIAN_POINT('',(16.4,0.,14.9));
#1186=CARTESIAN_POINT('Origin',(9.40000000000002,0.,14.9));
#1187=CARTESIAN_POINT('',(9.40000000000002,0.,21.9));
#1188=CARTESIAN_POINT('Origin',(9.40000000000002,0.,14.9));
#1189=CARTESIAN_POINT('',(9.40000000000002,4.,21.9));
#1190=CARTESIAN_POINT('Origin',(9.40000000000002,4.,14.9));
#1191=CARTESIAN_POINT('',(9.40000000000002,0.,21.9));
#1192=CARTESIAN_POINT('Origin',(-30.,0.,21.9));
#1193=CARTESIAN_POINT('',(-30.,0.,21.9));
#1194=CARTESIAN_POINT('',(9.40000000000002,0.,21.9));
#1195=CARTESIAN_POINT('',(-30.,4.,21.9));
#1196=CARTESIAN_POINT('',(9.40000000000002,4.,21.9));
#1197=CARTESIAN_POINT('',(-30.,0.,21.9));
#1198=CARTESIAN_POINT('Origin',(-30.,0.,14.9));
#1199=CARTESIAN_POINT('',(-37.,0.,14.9));
#1200=CARTESIAN_POINT('Origin',(-30.,0.,14.9));
#1201=CARTESIAN_POINT('',(-37.,4.,14.9));
#1202=CARTESIAN_POINT('Origin',(-30.,4.,14.9));
#1203=CARTESIAN_POINT('',(-37.,0.,14.9));
#1204=CARTESIAN_POINT('Origin',(-37.,0.,-35.));
#1205=CARTESIAN_POINT('',(-37.,0.,-35.));
#1206=CARTESIAN_POINT('',(-37.,0.,14.9));
#1207=CARTESIAN_POINT('',(-37.,4.,-35.));
#1208=CARTESIAN_POINT('',(-37.,4.,14.9));
#1209=CARTESIAN_POINT('',(-37.,0.,-35.));
#1210=CARTESIAN_POINT('Origin',(-30.,0.,-35.));
#1211=CARTESIAN_POINT('Origin',(-30.,0.,-35.));
#1212=CARTESIAN_POINT('Origin',(-30.,4.,-35.));
#1213=CARTESIAN_POINT('Origin',(-10.3,4.,-10.05));
#1214=CARTESIAN_POINT('Origin',(-10.3,2.,-10.05));
#1215=CARTESIAN_POINT('Origin',(-10.3,0.,-10.05));
#1216=CARTESIAN_POINT('Origin',(-39.5,9.,-32.5));
#1217=CARTESIAN_POINT('',(-39.5,9.,-35.));
#1218=CARTESIAN_POINT('',(-39.5,9.,-30.));
#1219=CARTESIAN_POINT('Origin',(-39.5,9.,-32.5));
#1220=CARTESIAN_POINT('',(-39.5,4.,-35.));
#1221=CARTESIAN_POINT('',(-39.5,9.,-35.));
#1222=CARTESIAN_POINT('',(-39.5,4.,-30.));
#1223=CARTESIAN_POINT('Origin',(-39.5,4.,-32.5));
#1224=CARTESIAN_POINT('',(-39.5,9.,-30.));
#1225=CARTESIAN_POINT('Origin',(-39.5000005885959,9.,-32.5000004842877));
#1226=CARTESIAN_POINT('',(-38.0000005885959,9.,-32.5000004842877));
#1227=CARTESIAN_POINT('Origin',(-39.5000005885959,9.,-32.5000004842877));
#1228=CARTESIAN_POINT('',(-38.0000005885959,4.,-32.5000004842877));
#1229=CARTESIAN_POINT('',(-38.0000005885959,9.,-32.5000004842877));
#1230=CARTESIAN_POINT('Origin',(-39.5000005885959,4.,-32.5000004842877));
#1231=CARTESIAN_POINT('Origin',(-37.,4.,-30.));
#1232=CARTESIAN_POINT('',(-37.,4.,-30.));
#1233=CARTESIAN_POINT('',(-37.,4.,-30.));
#1234=CARTESIAN_POINT('',(-37.,9.,-30.));
#1235=CARTESIAN_POINT('',(-37.,4.,-30.));
#1236=CARTESIAN_POINT('',(-37.,9.,-30.));
#1237=CARTESIAN_POINT('Origin',(-10.3,9.,-10.05));
#1238=CARTESIAN_POINT('',(-37.,9.,14.9));
#1239=CARTESIAN_POINT('',(-37.,9.,14.9));
#1240=CARTESIAN_POINT('',(-30.,9.,21.9));
#1241=CARTESIAN_POINT('Origin',(-30.,9.,14.9));
#1242=CARTESIAN_POINT('',(9.40000000000001,9.,21.9));
#1243=CARTESIAN_POINT('',(9.40000000000001,9.,21.9));
#1244=CARTESIAN_POINT('',(16.4,9.,14.9));
#1245=CARTESIAN_POINT('Origin',(9.4,9.,14.9));
#1246=CARTESIAN_POINT('',(16.4,9.,-35.));
#1247=CARTESIAN_POINT('',(16.4,9.,-35.));
#1248=CARTESIAN_POINT('',(9.40000000000001,9.,-42.));
#1249=CARTESIAN_POINT('Origin',(9.40000000000001,9.,-35.));
#1250=CARTESIAN_POINT('',(-30.,9.,-42.));
#1251=CARTESIAN_POINT('',(-30.,9.,-42.));
#1252=CARTESIAN_POINT('',(-37.,9.,-35.));
#1253=CARTESIAN_POINT('Origin',(-30.,9.,-35.));
#1254=CARTESIAN_POINT('',(-37.,9.,-35.));
#1255=CARTESIAN_POINT('',(5.15000000000001,9.,-3.));
#1256=CARTESIAN_POINT('Origin',(-1.59999999999999,9.,-3.));
#1257=CARTESIAN_POINT('',(1.25000000000001,9.,-15.5));
#1258=CARTESIAN_POINT('',(-23.75,9.,-15.5));
#1259=CARTESIAN_POINT('',(1.25000000000001,9.,-15.5));
#1260=CARTESIAN_POINT('',(-23.75,9.,-33.));
#1261=CARTESIAN_POINT('',(-23.75,9.,-15.5));
#1262=CARTESIAN_POINT('',(1.25000000000001,9.,-33.));
#1263=CARTESIAN_POINT('',(-23.75,9.,-33.));
#1264=CARTESIAN_POINT('',(1.25000000000001,9.,-33.));
#1265=CARTESIAN_POINT('',(-9.59999999999999,9.,-7.75));
#1266=CARTESIAN_POINT('',(-14.6,9.,-7.75));
#1267=CARTESIAN_POINT('',(-9.59999999999999,9.,-7.75));
#1268=CARTESIAN_POINT('',(-14.6,9.,-12.75));
#1269=CARTESIAN_POINT('',(-14.6,9.,-7.75));
#1270=CARTESIAN_POINT('',(-9.59999999999999,9.,-12.75));
#1271=CARTESIAN_POINT('',(-14.6,9.,-12.75));
#1272=CARTESIAN_POINT('',(-9.59999999999999,9.,-12.75));
#1273=CARTESIAN_POINT('Origin',(-37.,9.,-35.));
#1274=CARTESIAN_POINT('',(-37.,4.,-35.));
#1275=CARTESIAN_POINT('',(-37.,4.,-35.));
#1276=CARTESIAN_POINT('',(-37.,4.,-35.));
#1277=CARTESIAN_POINT('Origin',(-37.,4.,-35.));
#1278=CARTESIAN_POINT('',(-37.,4.,14.9));
#1279=CARTESIAN_POINT('',(-37.,4.,14.9));
#1280=CARTESIAN_POINT('',(-37.,4.,14.9));
#1281=CARTESIAN_POINT('Origin',(-1.59999999999999,4.,-3.));
#1282=CARTESIAN_POINT('',(5.15000000000001,4.,-3.));
#1283=CARTESIAN_POINT('',(5.15000000000001,4.,-3.));
#1284=CARTESIAN_POINT('Origin',(-1.59999999999999,4.,-3.));
#1285=CARTESIAN_POINT('Origin',(1.25000000000001,4.,-33.));
#1286=CARTESIAN_POINT('',(1.25000000000001,4.,-33.));
#1287=CARTESIAN_POINT('',(1.25000000000001,4.,-15.5));
#1288=CARTESIAN_POINT('',(1.25000000000001,4.,-33.));
#1289=CARTESIAN_POINT('',(1.25000000000001,4.,-15.5));
#1290=CARTESIAN_POINT('',(1.25000000000001,4.,-33.));
#1291=CARTESIAN_POINT('Origin',(-23.75,4.,-33.));
#1292=CARTESIAN_POINT('',(-23.75,4.,-33.));
#1293=CARTESIAN_POINT('',(-23.75,4.,-33.));
#1294=CARTESIAN_POINT('',(-23.75,4.,-33.));
#1295=CARTESIAN_POINT('Origin',(-23.75,4.,-15.5));
#1296=CARTESIAN_POINT('',(-23.75,4.,-15.5));
#1297=CARTESIAN_POINT('',(-23.75,4.,-15.5));
#1298=CARTESIAN_POINT('',(-23.75,4.,-15.5));
#1299=CARTESIAN_POINT('Origin',(1.25000000000001,4.,-15.5));
#1300=CARTESIAN_POINT('',(1.25000000000001,4.,-15.5));
#1301=CARTESIAN_POINT('Origin',(-9.59999999999999,4.,-12.75));
#1302=CARTESIAN_POINT('',(-9.59999999999999,4.,-12.75));
#1303=CARTESIAN_POINT('',(-9.59999999999999,4.,-7.75));
#1304=CARTESIAN_POINT('',(-9.59999999999999,4.,-12.75));
#1305=CARTESIAN_POINT('',(-9.59999999999999,4.,-7.75));
#1306=CARTESIAN_POINT('',(-9.59999999999999,4.,-12.75));
#1307=CARTESIAN_POINT('Origin',(-14.6,4.,-12.75));
#1308=CARTESIAN_POINT('',(-14.6,4.,-12.75));
#1309=CARTESIAN_POINT('',(-14.6,4.,-12.75));
#1310=CARTESIAN_POINT('',(-14.6,4.,-12.75));
#1311=CARTESIAN_POINT('Origin',(-14.6,4.,-7.75));
#1312=CARTESIAN_POINT('',(-14.6,4.,-7.75));
#1313=CARTESIAN_POINT('',(-14.6,4.,-7.75));
#1314=CARTESIAN_POINT('',(-14.6,4.,-7.75));
#1315=CARTESIAN_POINT('Origin',(-9.59999999999999,4.,-7.75));
#1316=CARTESIAN_POINT('',(-9.59999999999999,4.,-7.75));
#1317=CARTESIAN_POINT('Origin',(9.40000000000001,4.,-42.));
#1318=CARTESIAN_POINT('',(-30.,4.,-42.));
#1319=CARTESIAN_POINT('',(9.40000000000001,4.,-42.));
#1320=CARTESIAN_POINT('',(-30.,4.,-42.));
#1321=CARTESIAN_POINT('',(-30.,4.,-42.));
#1322=CARTESIAN_POINT('',(9.40000000000001,4.,-42.));
#1323=CARTESIAN_POINT('Origin',(9.40000000000001,4.,-35.));
#1324=CARTESIAN_POINT('',(16.4,4.,-35.));
#1325=CARTESIAN_POINT('Origin',(9.40000000000001,4.,-35.));
#1326=CARTESIAN_POINT('',(16.4,4.,-35.));
#1327=CARTESIAN_POINT('Origin',(16.4,4.,14.9));
#1328=CARTESIAN_POINT('',(16.4,4.,14.9));
#1329=CARTESIAN_POINT('',(16.4,4.,-35.));
#1330=CARTESIAN_POINT('',(16.4,4.,14.9));
#1331=CARTESIAN_POINT('Origin',(9.4,4.,14.9));
#1332=CARTESIAN_POINT('',(9.40000000000001,4.,21.9));
#1333=CARTESIAN_POINT('Origin',(9.4,4.,14.9));
#1334=CARTESIAN_POINT('',(9.40000000000001,4.,21.9));
#1335=CARTESIAN_POINT('Origin',(-30.,4.,21.9));
#1336=CARTESIAN_POINT('',(-30.,4.,21.9));
#1337=CARTESIAN_POINT('',(9.40000000000001,4.,21.9));
#1338=CARTESIAN_POINT('',(-30.,4.,21.9));
#1339=CARTESIAN_POINT('Origin',(-30.,4.,14.9));
#1340=CARTESIAN_POINT('Origin',(-30.,4.,14.9));
#1341=CARTESIAN_POINT('Origin',(-30.,4.,-35.));
#1342=CARTESIAN_POINT('Origin',(-30.,4.,-35.));
#1343=CARTESIAN_POINT('Origin',(-10.3,4.,-10.05));
#1344=UNCERTAINTY_MEASURE_WITH_UNIT(LENGTH_MEASURE(0.01),#1348,
'DISTANCE_ACCURACY_VALUE',
'Maximum model space distance between geometric entities at asserted c
onnectivities');
#1345=UNCERTAINTY_MEASURE_WITH_UNIT(LENGTH_MEASURE(0.01),#1348,
'DISTANCE_ACCURACY_VALUE',
'Maximum model space distance between geometric entities at asserted c
onnectivities');
#1346=(
GEOMETRIC_REPRESENTATION_CONTEXT(3)
GLOBAL_UNCERTAINTY_ASSIGNED_CONTEXT((#1344))
GLOBAL_UNIT_ASSIGNED_CONTEXT((#1348,#1350,#1351))
REPRESENTATION_CONTEXT('','3D')
);
#1347=(
GEOMETRIC_REPRESENTATION_CONTEXT(3)
GLOBAL_UNCERTAINTY_ASSIGNED_CONTEXT((#1345))
GLOBAL_UNIT_ASSIGNED_CONTEXT((#1348,#1350,#1351))
REPRESENTATION_CONTEXT('','3D')
);
#1348=(
LENGTH_UNIT()
NAMED_UNIT(*)
SI_UNIT(.MILLI.,.METRE.)
);
#1349=(
LENGTH_UNIT()
NAMED_UNIT(*)
SI_UNIT($,.METRE.)
);
#1350=(
NAMED_UNIT(*)
PLANE_ANGLE_UNIT()
SI_UNIT($,.RADIAN.)
);
#1351=(
NAMED_UNIT(*)
SI_UNIT($,.STERADIAN.)
SOLID_ANGLE_UNIT()
);
#1352=SHAPE_DEFINITION_REPRESENTATION(#1353,#1354);
#1353=PRODUCT_DEFINITION_SHAPE('',$,#1356);
#1354=SHAPE_REPRESENTATION('',(#816),#1346);
#1355=PRODUCT_DEFINITION_CONTEXT('part definition',#1360,'design');
#1356=PRODUCT_DEFINITION('PCB','PCB v1',#1357,#1355);
#1357=PRODUCT_DEFINITION_FORMATION('',$,#1362);
#1358=PRODUCT_RELATED_PRODUCT_CATEGORY('PCB v1','PCB v1',(#1362));
#1359=APPLICATION_PROTOCOL_DEFINITION('international standard',
'automotive_design',2009,#1360);
#1360=APPLICATION_CONTEXT(
'Core Data for Automotive Mechanical Design Process');
#1361=PRODUCT_CONTEXT('part definition',#1360,'mechanical');
#1362=PRODUCT('PCB','PCB v1',$,(#1361));
#1363=PRESENTATION_STYLE_ASSIGNMENT((#1364));
#1364=SURFACE_STYLE_USAGE(.BOTH.,#1365);
#1365=SURFACE_SIDE_STYLE('',(#1366));
#1366=SURFACE_STYLE_FILL_AREA(#1367);
#1367=FILL_AREA_STYLE('Steel - Satin',(#1368));
#1368=FILL_AREA_STYLE_COLOUR('Steel - Satin',#1369);
#1369=COLOUR_RGB('Steel - Satin',0.627450980392157,0.627450980392157,0.627450980392157);
ENDSEC;
END-ISO-10303-21;
